<svg id="Layer_1" data-name="Layer 1" xmlns="http://www.w3.org/2000/svg" viewBox="0 0 408.14 145.39"><defs><style>.cls-1{fill:none;}.cls-2{fill:#53c4c7;}.cls-3{fill:#fff;}</style></defs><title>MudMattersLogo</title><path class="cls-1" d="M30.87,31.11c-1.13,1.82.83,4,2.65,5.12.75.47,1.51.91,2.28,1.33a61.43,61.43,0,0,0,2.65-6.2,26.09,26.09,0,0,0-2.83-1.07C34,29.79,31.79,29.64,30.87,31.11Z" transform="translate(-11.73 -8.77)"/><path class="cls-1" d="M121.25,30.53c-.85-1.37-2.88-1.23-4.42-.76a22.37,22.37,0,0,0-2.91,1.12c.13.37.27.75.41,1.12a35.79,35.79,0,0,0,2.22,4.58c.75-.41,1.5-.84,2.23-1.29C120.48,34.24,122.3,32.22,121.25,30.53Z" transform="translate(-11.73 -8.77)"/><path class="cls-2" d="M143.36,84.53a33.77,33.77,0,0,0-2.94-10.2c-4.37-10.07-10.7-19.16-17.23-28-1.18-1.6-2.38-3.2-3.52-4.84a51.94,51.94,0,0,1-7,3.52l-1.53-6a43.88,43.88,0,0,0,5.4-2.47A35.79,35.79,0,0,1,114.33,32c-.14-.37-.28-.75-.41-1.12-.64.29-1.26.6-1.87.95a2.32,2.32,0,0,1-1.57.47,2.16,2.16,0,0,1-1-.62,39.53,39.53,0,0,1-4.07-4.41l1.1.81,0-1.26A19.74,19.74,0,0,1,112.61,24a17.13,17.13,0,0,1,1.71-8.4C104.37,9,91.67,8.8,79.74,8.77c-13.51,0-27.82.15-39.33,7.23-.64,2.79.93,4.65.28,7.44l-.18.77a20.84,20.84,0,0,1,6.15,2.92l0,1.35,1.18-.86a43.6,43.6,0,0,1-4.37,4.74,2.4,2.4,0,0,1-1.06.67,2.54,2.54,0,0,1-1.69-.51,24.92,24.92,0,0,0-2.31-1.16,61.43,61.43,0,0,1-2.65,6.2,46.46,46.46,0,0,0,5.92,2.71q-.82,3.21-1.64,6.42a58.72,58.72,0,0,1-7.23-3.61c-3.09,5.34-6.62,10.49-9.9,15.71-6.27,10-11.86,21.15-11.16,32.9.88,14.56,11.07,26.66,21,37.38,6.42,7,13,13.93,21.13,18.86S71.81,155.6,81,153.38c5.65-1.36,10.71-4.47,15.65-7.53,12.93-8,26.17-16.29,35.25-28.48a60.84,60.84,0,0,0,10.65-23.53A31.41,31.41,0,0,0,143.36,84.53ZM97.26,74a4.71,4.71,0,0,1,1.5,1.14l-.38.15a1.64,1.64,0,0,1,.14,2.11,2.29,2.29,0,0,1-1.55.73,1,1,0,0,1-.51,1.36c-.15.86-1,1.36-1.77,1.75a1,1,0,0,1-.44.14.6.6,0,0,1-.53-.59.79.79,0,0,1,.45-.68,1.38,1.38,0,0,0,.34-.18c.37-.32,0-1,.3-1.41.1-.13.27-.22.32-.38s-.13-.42-.33-.51a4.62,4.62,0,0,1-.62-.23c-.45-.31-.34-1-.18-1.55a3.36,3.36,0,0,1,.49-1.11,1,1,0,0,1,1-.44A1.57,1.57,0,0,1,97.26,74ZM87.75,48.83c.16-.49.75-.69,1-1.14s.18-.85.38-1.23c.3-.57,1.06-.79,1.29-1.39a1.4,1.4,0,0,1,.21-.48c.2-.2.53-.09.81-.09.65,0,1.15-.62,1.79-.73a2.49,2.49,0,0,1,2,.93l.91.85a.47.47,0,0,1,.21.36c0,.21-.24.3-.42.4a1.29,1.29,0,0,0-.58,1.44l.07-.74c.33.23.22.76.07,1.14l-1.18,3a2.69,2.69,0,0,0-.17.55c0,.21,0,.43,0,.64a5.69,5.69,0,0,1-.22,1.15l-.17.66c-.15.56-.4,1.22-1,1.3-.38,0-.73-.21-1.11-.3a7.72,7.72,0,0,0-1-.05,4,4,0,0,1-2-1,2.27,2.27,0,0,1-.48-.45A2,2,0,0,1,88,53a4.66,4.66,0,0,1-.17-2,3.68,3.68,0,0,0,.11-.65C88,49.86,87.59,49.33,87.75,48.83ZM82.14,72.44c.23-.31.61-.53.7-.91a2,2,0,0,0-.06-.8c-.35-2.23,2.31-4.2,1.71-6.38a3.61,3.61,0,0,1-.27-1.11c0-.68.73-1.15.86-1.82s-.28-1.24-.13-1.85a4.45,4.45,0,0,1,.66-1.13c.23-.37.3-.95-.06-1.2a6.84,6.84,0,0,1,4.82,0c.49.19,1,.58,1,1.11l.11-.57a2.19,2.19,0,0,1,.35,3.09,2,2,0,0,0-.48.61c-.27.75.8,1.54.46,2.26-.1.21-.31.34-.42.54s-.16.57-.29.83c-.37.75-1.42.61-2.22.48s-2,.19-1.86,1c-.1.48.41.86.87,1s1,.25,1.24.69A1.67,1.67,0,0,1,89,69.65c-.17.46-.33.93-.5,1.39a15.14,15.14,0,0,0-.71,2.38,3.94,3.94,0,0,1-.94,2.48,2.7,2.7,0,0,1-2.71,0,4.3,4.3,0,0,1-1.88-1.28A1.87,1.87,0,0,1,82.14,72.44ZM67.6,71.36c.19-1,1.22-1.88.77-2.76.74-.06,1.47.26,2.2.21s1.52-.84,1.16-1.51c-.25-.45-.86-.53-1.21-.9a1.73,1.73,0,0,1-.15-1.75A8.67,8.67,0,0,0,71,62.92c.16-1.14-.56-2.51.2-3.37a4.18,4.18,0,0,1,1.43-.76c.49-.24,1-.83.7-1.32-.38-.74-1.61-.23-2.19-.8-.41-.41-.26-1.1-.09-1.65.38-1.19.75-2.38,1.13-3.57a6.35,6.35,0,0,1,1.85-3.33c1-.76,2.8-.57,3.2.67l0-.44a3.06,3.06,0,0,1,.2,3c-.26.53-.69,1-.57,1.64s.72.9.94,1.43c.33.8-.27,1.65-.89,2.22s-1.37,1.16-1.45,2a2.11,2.11,0,0,1,1,.48.8.8,0,0,1,.11,1,3,3,0,0,1-.61.35c-1,.69.18,2.57-.6,3.53-.39.48-1.2.57-1.41,1.16a1.57,1.57,0,0,0,.4,1.34l2.07,3a1.49,1.49,0,0,0-1.66,1.61c.09.7.67,1.25.78,2,.17,1-.73,1.94-1.62,2.48s-1.93,1-2.34,2c-.06.15-.12.32-.27.38a.5.5,0,0,1-.34,0c-1.06-.34-2.28-.82-2.62-1.91a11.66,11.66,0,0,1-.15-1.78C68.05,73.22,67.41,72.31,67.6,71.36ZM99.67,97.14a.78.78,0,0,1-1.17.43c-.82.81.86,2.11.45,3.19-.28.74-1.29.7-2,.53a5.31,5.31,0,0,1-3.26-1.58c-.21-.27-.41-.6-.73-.68-.64-.17-1,.69-1.5,1.14A1.55,1.55,0,0,1,89,99a1.86,1.86,0,0,0-1.35,1.53c.3,1,1.7,1,2.63.6s1.85-1.15,2.85-.94a6,6,0,0,1,1.65.9,8.88,8.88,0,0,1,2.29,1.3c.61.65.5,2-.38,2.13-.42,0-.8-.25-1.22-.32s-1,.37-.71.72a7,7,0,0,0,2.65.12l-.18.52a10.12,10.12,0,0,0-.8,3.93,5.34,5.34,0,0,1,0,2.58c-.28.61-.9,1-1.26,1.55s-.3,1.56.35,1.67l-.67.46c.24,1-.59,2-1.39,2.65s-1.73,1.4-1.8,2.45l-.95.09a5.45,5.45,0,0,1-4.09,2.83l0,1.1a22.12,22.12,0,0,0-4.74.34,2.16,2.16,0,0,1-1.07,0,.87.87,0,0,1-.51-.45l-.08,0-3.6-4a2.67,2.67,0,0,0-.75-2.11,1.6,1.6,0,0,0-.48-.49c-.64-.36-1.43.43-1.39,1.18A3.27,3.27,0,0,0,75,121.37c-.56,1-2.12-.08-3.12.42-.41.2-.66.66-1.08.84-.76.32-1.54-.37-2.31-.65-1.13-.42-2.38.06-3.57,0-1.9-.12-3.43-1.58-4.78-3l-3.31-3.36a26.41,26.41,0,0,1-4-4.73,28.21,28.21,0,0,1-1.73-3.64l-.46-1.12a7.3,7.3,0,0,1-.37-1c-.24-1-.1-2.1-.71-2.89a4.39,4.39,0,0,0-.75-.68,7.2,7.2,0,0,1-2.48-4.4A4.78,4.78,0,0,0,46.08,96a3.27,3.27,0,0,0-.82-1l-5-4.7a3.53,3.53,0,0,1-1.5-2.61,2.18,2.18,0,0,0,1.34-.4,1.18,1.18,0,0,0,.72.43c.6-.06.83-.92.55-1.46A3.57,3.57,0,0,0,40,85.06a2,2,0,0,1-1.1-1.38,1.53,1.53,0,0,1,.92-1.44A3.71,3.71,0,0,1,41.52,82a6.43,6.43,0,0,1,1.8.27,8,8,0,0,1,3.22,2.66A1.46,1.46,0,0,1,47,86c-.08.57-.79.95-.7,1.52.06.37.42.58.71.81,1.12.89,1.36,2.58,2.43,3.54a2.59,2.59,0,0,1,.41.4,1.48,1.48,0,0,1,.21.74,5,5,0,0,1-.49,2.65,4.22,4.22,0,0,0-.54,1.3c-.09.78.44,1.89,1.16,1.62a2,2,0,0,0,1.21-1.86c.51-.11,1.17-.15,1.4.33.31.64-.59,1.36-.38,2s1.43.45,2.23.69c.61.18,1,.78,1.45,1.27s1.14.89,1.7.57a18.39,18.39,0,0,1,2.75-4.1,1.68,1.68,0,0,1,1-.65c.62-.06,1.08.52,1.52,1s1.23.78,1.62.29c-.74-2.05-1.28-4.64.22-6.18a5.75,5.75,0,0,1,3.5-1.31,3.73,3.73,0,0,1,1.63,0,4.92,4.92,0,0,1,1.84,1.45,10,10,0,0,0,3.63,2.32c.24.45-.62,1.08-1.12,1s-1.22.08-1.17.59a4,4,0,0,0,2,2.1A2.32,2.32,0,0,0,75.58,97a4,4,0,0,0,1.35-.89v-2a4.54,4.54,0,0,1-1.44-1,1.59,1.59,0,0,1-.27-1.67c-.9,0-1.33-1.84-2.11-1.39-.32.18-.4.67-.74.78a.81.81,0,0,1-.71-.21,8.32,8.32,0,0,1-2.57-3H67.51A4.44,4.44,0,0,1,66.78,84a9.32,9.32,0,0,1,1.55-3.35,4.19,4.19,0,0,1,2.34-2c1.92-.4,3.44,1.69,5.33,2.22.57.16,1.16.17,1.72.36,1.36.45,2.21,1.79,3,3l.7-.36a2.82,2.82,0,0,1,.35-2.16,12.32,12.32,0,0,1,3.92.83,1.32,1.32,0,0,1,.57.36c.16.2.2.48.35.7.38.57,1.2.46,1.86.57s1.31,1,.74,1.39c1-.05,2.24,0,2.76.9.28.49.27,1.12.52,1.63.4.78,1.32,1.09,2.07,1.51S96,91,95.63,91.8a4.69,4.69,0,0,1,5.22,3.09,2.58,2.58,0,0,0-1.53.79C99,96.15,99.1,97,99.67,97.14Zm1.28-28a3.67,3.67,0,0,0-.26.65,6.62,6.62,0,0,1-1.79,2.81,3.12,3.12,0,0,1-.65-2.19l-.09-2.61a6.54,6.54,0,0,1,.39-3,2.12,2.12,0,0,1,1.23-1.16,1.33,1.33,0,0,1,1.52.5l.81-1.1c-.51-.28-1.08-.41-1.59-.69a1.65,1.65,0,0,1-1-1.36c0-.75.75-1.44.5-2.14-.09-.25-.3-.46-.31-.72s.39-.65.53-1a2.81,2.81,0,0,0,0-1.12,3.79,3.79,0,0,1,1-2.22,8.22,8.22,0,0,1,1.82-1.9,3.94,3.94,0,0,1,3.32-.46,3.2,3.2,0,0,1,0,2.24,1.5,1.5,0,0,1,.7,1l-.11-.21a2.4,2.4,0,0,1-.09,2.29,4.8,4.8,0,0,0-.71,2.26,1.58,1.58,0,0,1,0,.75c-.12.29-.44.41-.69.58A3.83,3.83,0,0,0,104.36,62L102,67.49a4.39,4.39,0,0,1-.45.86A6.23,6.23,0,0,0,101,69.09Zm15.27,5.35c-.76-.06-1.2.84-1.39,1.6s-.5,1.68-1.25,1.79a2.53,2.53,0,0,0-.78.09c-.47.25-.34,1-.14,1.48l-1.19.13c.34.42.13,1-.12,1.53a12.46,12.46,0,0,1-4.41,4.73c-.51.32-1.1.68-1.18,1.29a4.25,4.25,0,0,1-.06.8,1.17,1.17,0,0,1-.46.5,26.65,26.65,0,0,1-3.36,2.11c-.35-.24-.29-.8-.07-1.18a3.9,3.9,0,0,0,.62-1.13c.1-.54-.24-1.08-.16-1.62a2.08,2.08,0,0,1,.4-.85l1.5-2.29a2.46,2.46,0,0,0,.56-2.25c.79,0,1.26-.88,1.49-1.65s.47-1.67,1.19-2c.24-.11.53-.15.7-.36.41-.52-.37-1.49.14-1.92.21-.17.55-.13.74-.34s0-.77-.11-1.17a1.2,1.2,0,0,1,1.1-1.41,5.21,5.21,0,0,1,4.8-3.81l-.48-.08c1.22-.67,2.75.57,3,2A6.93,6.93,0,0,1,116.22,74.44Z" transform="translate(-11.73 -8.77)"/><path class="cls-2" d="M33.52,36.23c-1.82-1.13-3.78-3.3-2.65-5.12.92-1.47,3.09-1.32,4.75-.82a26.09,26.09,0,0,1,2.83,1.07c.43-1.17.82-2.36,1.16-3.57s.62-2.38.9-3.58c-1-.31-2-.58-3.08-.83-2.7-.63-5.63-1.09-8.15.07a7.81,7.81,0,0,0-4,4.57c-1.42,4.15.47,8.85,3.57,12a21.78,21.78,0,0,0,4,3.1c1-1.81,2-3.65,2.95-5.52C35,37.14,34.27,36.7,33.52,36.23Z" transform="translate(-11.73 -8.77)"/><path class="cls-2" d="M41.72,40.27a46.46,46.46,0,0,1-5.92-2.71c-.91,1.87-1.91,3.71-2.95,5.52a58.72,58.72,0,0,0,7.23,3.61Q40.89,43.48,41.72,40.27Z" transform="translate(-11.73 -8.77)"/><path class="cls-2" d="M38.45,31.36a24.92,24.92,0,0,1,2.31,1.16,2.54,2.54,0,0,0,1.69.51,2.4,2.4,0,0,0,1.06-.67,43.6,43.6,0,0,0,4.37-4.74l-1.18.86,0-1.35a20.84,20.84,0,0,0-6.15-2.92c-.28,1.2-.57,2.4-.9,3.58S38.88,30.19,38.45,31.36Z" transform="translate(-11.73 -8.77)"/><path class="cls-2" d="M116.83,29.77c1.54-.47,3.57-.61,4.42.76,1,1.69-.77,3.71-2.47,4.77-.73.45-1.48.88-2.23,1.29,1,1.68,2,3.32,3.12,4.91a19.68,19.68,0,0,0,3.45-2.72c2.88-2.89,4.65-7.27,3.32-11.13a7.26,7.26,0,0,0-3.71-4.25c-2.34-1.08-5.07-.65-7.58-.06-.85.2-1.7.42-2.54.67a24.57,24.57,0,0,0,1.31,6.88A22.37,22.37,0,0,1,116.83,29.77Z" transform="translate(-11.73 -8.77)"/><path class="cls-2" d="M111.15,39.06l1.53,6a51.94,51.94,0,0,0,7-3.52c-1.11-1.59-2.17-3.23-3.12-4.91A43.88,43.88,0,0,1,111.15,39.06Z" transform="translate(-11.73 -8.77)"/><path class="cls-2" d="M106.52,28.09l-1.1-.81a39.53,39.53,0,0,0,4.07,4.41,2.16,2.16,0,0,0,1,.62,2.32,2.32,0,0,0,1.57-.47c.61-.35,1.23-.66,1.87-.95A24.57,24.57,0,0,1,112.61,24a19.74,19.74,0,0,0-6.06,2.82Z" transform="translate(-11.73 -8.77)"/><path class="cls-3" d="M80.18,124.41a.55.55,0,0,0,.06.38l.65-.44Z" transform="translate(-11.73 -8.77)"/><path class="cls-2" d="M195.6,79.14a1,1,0,0,1-.61.57,2.3,2.3,0,0,1-1.83,0,1.33,1.33,0,0,1-.68-.57l-17.1-38.68h-.23l.15,30.17c0,.71,0,1.42.08,2.13a4.66,4.66,0,0,0,.53,1.9A3.25,3.25,0,0,0,177.32,76a6.16,6.16,0,0,0,2.77.49,4.72,4.72,0,0,1,1.33.15c.33.11.55.59.65,1.45a2.11,2.11,0,0,1-.34,1.14,1.15,1.15,0,0,1-1,.53l-2-.11-1.52-.08c-.49,0-1,0-1.49,0h-3.91c-.58,0-1.14,0-1.67,0l-1.71.08c-.61,0-1.32.06-2.13.11a1.12,1.12,0,0,1-1.06-.53,2.17,2.17,0,0,1-.31-1.14c.05-.86.24-1.34.57-1.45a4.72,4.72,0,0,1,1.33-.15,6.21,6.21,0,0,0,2.78-.49,3.23,3.23,0,0,0,1.4-1.33,4.51,4.51,0,0,0,.53-1.9c.05-.71.08-1.42.08-2.13l.15-30.17a11.06,11.06,0,0,0-.3-2.89,3.68,3.68,0,0,0-1-1.67,4.54,4.54,0,0,0-1.6-.95,13.23,13.23,0,0,0-2.24-.57,12.72,12.72,0,0,1-1.48-.38c-.28-.1-.42-.56-.42-1.37s.29-1.33.87-1.4a16.49,16.49,0,0,1,2.17-.12,35.68,35.68,0,0,1,5.09.34A15.73,15.73,0,0,1,177,32.63a10,10,0,0,1,3.31,2.43,14.74,14.74,0,0,1,2.51,4.11L195.9,68.5h.23l15-36.93h4.33c1.52,0,3,0,4.45,0s3-.09,4.6-.19a1.13,1.13,0,0,1,1.06.53,2.31,2.31,0,0,1,.3,1.14c-.05.86-.25,1.34-.6,1.45a4.89,4.89,0,0,1-1.3.15,6.44,6.44,0,0,0-2.81.49,3.17,3.17,0,0,0-1.44,1.33,4.85,4.85,0,0,0-.57,1.9,19,19,0,0,0-.12,2.13V70.63a19,19,0,0,0,.12,2.13,4.85,4.85,0,0,0,.57,1.9A3.17,3.17,0,0,0,221.13,76a6.44,6.44,0,0,0,2.81.49,4.89,4.89,0,0,1,1.3.15c.35.11.55.59.6,1.45a2.26,2.26,0,0,1-.3,1.14,1.13,1.13,0,0,1-1.06.53c-1.63-.1-3.17-.16-4.64-.19s-3,0-4.48,0q-4.49,0-9.35.23a1.14,1.14,0,0,1-1.07-.53,2.26,2.26,0,0,1-.3-1.14c.05-.86.24-1.34.57-1.45a4.72,4.72,0,0,1,1.33-.15,6.41,6.41,0,0,0,2.81-.49,3.25,3.25,0,0,0,1.45-1.33,5.21,5.21,0,0,0,.57-1.9c.07-.71.11-1.42.11-2.13V40.46h-.23Z" transform="translate(-11.73 -8.77)"/><path class="cls-2" d="M264.68,72.3q0,4.49,6,4.49c.56,0,.92.15,1.07.45a2.25,2.25,0,0,1,.23,1c0,.71-.43,1.14-1.3,1.29l-12.23.84c-.41,0-.62-.15-.65-.46s0-.65,0-1.06V74.58h-.15c-.76.71-1.52,1.41-2.28,2.09a16.17,16.17,0,0,1-2.54,1.87,14.2,14.2,0,0,1-3.23,1.36,14.78,14.78,0,0,1-4.18.53,10.9,10.9,0,0,1-8.25-3.11,11.34,11.34,0,0,1-3-8.21v-16a4,4,0,0,0-.34-1.67,2.51,2.51,0,0,0-1.14-1.14,5.35,5.35,0,0,0-2.4-.42,3.86,3.86,0,0,1-1.25-.19c-.38-.12-.57-.57-.57-1.33a1.3,1.3,0,0,1,.3-.83,1.59,1.59,0,0,1,.91-.53c1.73-.26,3.15-.52,4.26-.8s2-.53,2.74-.76l1.71-.57a5.44,5.44,0,0,1,1.25-.31,1.41,1.41,0,0,1,1,.23A1.46,1.46,0,0,1,241,46V69a7.58,7.58,0,0,0,.65,3.26,6.48,6.48,0,0,0,4,3.54,8.62,8.62,0,0,0,2.62.41,10.29,10.29,0,0,0,3.57-.57,11.53,11.53,0,0,0,2.81-1.4,10.8,10.8,0,0,0,2-1.71A6.24,6.24,0,0,0,257.76,71V53.11a3.83,3.83,0,0,0-.34-1.67,2.51,2.51,0,0,0-1.14-1.14,5.3,5.3,0,0,0-2.39-.42,3.87,3.87,0,0,1-1.26-.19c-.38-.12-.57-.57-.57-1.33a1.32,1.32,0,0,1,.31-.83,1.55,1.55,0,0,1,.91-.53c1.72-.26,3.14-.52,4.26-.8s2-.53,2.73-.76l1.71-.57a5.52,5.52,0,0,1,1.26-.31,1.4,1.4,0,0,1,1,.23,1.43,1.43,0,0,1,.42,1.22Z" transform="translate(-11.73 -8.77)"/><path class="cls-2" d="M308.68,72.53a4.07,4.07,0,0,0,1.41,3.35A7.24,7.24,0,0,0,314.61,77c.56,0,.91.15,1.07.42a1.7,1.7,0,0,1,.22.8q0,1.06-1.29,1.29l-12.08.84c-.41,0-.62-.15-.65-.46s0-.65,0-1.06v-3h-.22a16.84,16.84,0,0,1-4.79,3.3,13.2,13.2,0,0,1-5.7,1.33,14.29,14.29,0,0,1-6.08-1.33A15.7,15.7,0,0,1,280,75.38a17.79,17.79,0,0,1-3.5-5.74,20.3,20.3,0,0,1-1.29-7.37,18.25,18.25,0,0,1,1.29-6.76,18,18,0,0,1,3.65-5.78,18.5,18.5,0,0,1,5.55-4,16.23,16.23,0,0,1,7.06-1.52,19.73,19.73,0,0,1,4.75.57,16,16,0,0,1,4.07,1.56h.23V32.75a4,4,0,0,0-.34-1.68,2.51,2.51,0,0,0-1.14-1.14,5.51,5.51,0,0,0-2.4-.41,3.85,3.85,0,0,1-1.25-.2c-.38-.12-.57-.57-.57-1.32a1.31,1.31,0,0,1,.3-.84,1.64,1.64,0,0,1,.91-.53c1.73-.26,3.15-.52,4.26-.8s2-.53,2.74-.76L306,24.5a6.71,6.71,0,0,1,1.25-.31,1.46,1.46,0,0,1,1,.23,1.47,1.47,0,0,1,.41,1.22Zm-6.91-19.76a9.79,9.79,0,0,0-.95-2,7.45,7.45,0,0,0-1.67-1.89,9.47,9.47,0,0,0-2.44-1.41,8.5,8.5,0,0,0-3.23-.57,8.24,8.24,0,0,0-4.1,1.06A10.33,10.33,0,0,0,286,51.06,15.33,15.33,0,0,0,283.79,56a25.43,25.43,0,0,0-.79,6.65,21,21,0,0,0,.64,5.25,13.8,13.8,0,0,0,2,4.44A10.38,10.38,0,0,0,289,75.46a9.29,9.29,0,0,0,4.75,1.17,9,9,0,0,0,4.79-1.17,16.1,16.1,0,0,0,3.27-2.63Z" transform="translate(-11.73 -8.77)"/><path class="cls-2" d="M195.6,139.14a1,1,0,0,1-.61.57,2.3,2.3,0,0,1-1.83,0,1.33,1.33,0,0,1-.68-.57l-17.1-38.68h-.23l.15,30.17c0,.71,0,1.42.08,2.13a4.66,4.66,0,0,0,.53,1.9,3.25,3.25,0,0,0,1.41,1.33,6.16,6.16,0,0,0,2.77.49,4.72,4.72,0,0,1,1.33.15c.33.11.55.59.65,1.45a2.11,2.11,0,0,1-.34,1.14,1.15,1.15,0,0,1-1,.53l-2-.11-1.52-.08c-.49,0-1,0-1.49,0h-3.91c-.58,0-1.14,0-1.67,0l-1.71.08c-.61,0-1.32.06-2.13.11a1.12,1.12,0,0,1-1.06-.53,2.17,2.17,0,0,1-.31-1.14c.05-.86.24-1.34.57-1.45a4.72,4.72,0,0,1,1.33-.15,6.21,6.21,0,0,0,2.78-.49,3.23,3.23,0,0,0,1.4-1.33,4.51,4.51,0,0,0,.53-1.9c.05-.71.08-1.42.08-2.13l.15-30.17a11.06,11.06,0,0,0-.3-2.89,3.68,3.68,0,0,0-1-1.67,4.54,4.54,0,0,0-1.6-1,13.23,13.23,0,0,0-2.24-.57,12.72,12.72,0,0,1-1.48-.38c-.28-.1-.42-.56-.42-1.37s.29-1.33.87-1.4a16.49,16.49,0,0,1,2.17-.12,35.68,35.68,0,0,1,5.09.34A15.73,15.73,0,0,1,177,92.63a10,10,0,0,1,3.31,2.43,14.74,14.74,0,0,1,2.51,4.11L195.9,128.5h.23l15-36.93h4.33c1.52,0,3,0,4.45,0s3-.09,4.6-.19a1.13,1.13,0,0,1,1.06.53,2.31,2.31,0,0,1,.3,1.14c-.05.86-.25,1.34-.6,1.45a4.89,4.89,0,0,1-1.3.15,6.44,6.44,0,0,0-2.81.49,3.17,3.17,0,0,0-1.44,1.33,4.85,4.85,0,0,0-.57,1.9,19,19,0,0,0-.12,2.13v30.17a19,19,0,0,0,.12,2.13,4.85,4.85,0,0,0,.57,1.9,3.17,3.17,0,0,0,1.44,1.33,6.44,6.44,0,0,0,2.81.49,4.89,4.89,0,0,1,1.3.15c.35.11.55.59.6,1.45a2.26,2.26,0,0,1-.3,1.14,1.13,1.13,0,0,1-1.06.53c-1.63-.1-3.17-.16-4.64-.19s-3,0-4.48,0q-4.49,0-9.35.23a1.14,1.14,0,0,1-1.07-.53,2.26,2.26,0,0,1-.3-1.14c.05-.86.24-1.34.57-1.45a4.72,4.72,0,0,1,1.33-.15,6.41,6.41,0,0,0,2.81-.49,3.25,3.25,0,0,0,1.45-1.33,5.21,5.21,0,0,0,.57-1.9c.07-.71.11-1.42.11-2.13V100.46h-.23Z" transform="translate(-11.73 -8.77)"/><path class="cls-2" d="M246.74,106.39a6.58,6.58,0,0,0-4,1.36,4.68,4.68,0,0,0-1.82,4,3.47,3.47,0,0,0,.38,1.63,4.76,4.76,0,0,0,.84,1.18,10.51,10.51,0,0,0,.83.76c.26.2.38.33.38.38q0,.38-.87,1.14a3.51,3.51,0,0,1-2.4.76,4.22,4.22,0,0,1-3.68-1.75,6.46,6.46,0,0,1-1.25-3.88,6,6,0,0,1,1.06-3.6,8,8,0,0,1,2.77-2.4,13.65,13.65,0,0,1,3.88-1.33,22.87,22.87,0,0,1,4.37-.42,30.76,30.76,0,0,1,5.09.42,12.42,12.42,0,0,1,4.49,1.63A9.48,9.48,0,0,1,260,109.6a11.18,11.18,0,0,1,1.26,5.65v17.67a5.54,5.54,0,0,0,.19,1.37,4.85,4.85,0,0,0,.64,1.44,4.27,4.27,0,0,0,1.22,1.17,3.42,3.42,0,0,0,1.9.5,1.58,1.58,0,0,1,.84.19q.3.19.3,1a1.07,1.07,0,0,1-.46.9,3.36,3.36,0,0,1-1.14.54,9.13,9.13,0,0,1-1.4.28,11.71,11.71,0,0,1-1.18.07,8.17,8.17,0,0,1-5-1.63,6.37,6.37,0,0,1-2.59-4.52,8.36,8.36,0,0,1-2.36,2.66,17.44,17.44,0,0,1-3.3,1.94,18.06,18.06,0,0,1-3.65,1.18,17.52,17.52,0,0,1-3.46.37,9.53,9.53,0,0,1-6.65-2.66,9.49,9.49,0,0,1-2-2.85,8.17,8.17,0,0,1-.76-3.53,7.89,7.89,0,0,1,1.33-4.64,10.73,10.73,0,0,1,3.38-3.11,18.07,18.07,0,0,1,4.6-1.9,40.93,40.93,0,0,1,5-1c1.65-.22,3.17-.38,4.56-.45s2.5-.17,3.31-.27v-6a8.23,8.23,0,0,0-1.75-5.59Q251.08,106.39,246.74,106.39Zm7.83,15.88q-3.65.47-6.38,1.06a19.76,19.76,0,0,0-4.53,1.52,7,7,0,0,0-2.69,2.28,5.78,5.78,0,0,0-.92,3.27,6.58,6.58,0,0,0,1.37,4.18,4.31,4.31,0,0,0,3.57,1.75,9,9,0,0,0,3.65-.76,10.12,10.12,0,0,0,3.08-2,9.2,9.2,0,0,0,2.09-3.12,9.86,9.86,0,0,0,.76-3.87Z" transform="translate(-11.73 -8.77)"/><path class="cls-2" d="M281.63,108.06v23.1a10.11,10.11,0,0,0,.22,2.17,6.62,6.62,0,0,0,.73,1.86,3.69,3.69,0,0,0,1.33,1.33A4.08,4.08,0,0,0,286,137a16.16,16.16,0,0,0,1.87-.11,7.46,7.46,0,0,0,2.31-.72l.61-.27a1.87,1.87,0,0,1,.61-.11,1,1,0,0,1,.91.49,7.7,7.7,0,0,1,.53,1,.81.81,0,0,1-.38,1.06,13.73,13.73,0,0,1-4.33,2,19.84,19.84,0,0,1-4.41.46,8.83,8.83,0,0,1-3.34-.65,8.71,8.71,0,0,1-2.89-1.94,9.18,9.18,0,0,1-2-3.31,13.11,13.11,0,0,1-.76-4.67V107.91l-4.41.15a.89.89,0,0,1-.8-.42,1.78,1.78,0,0,1-.26-1,2.38,2.38,0,0,1,.26-1.1,1.29,1.29,0,0,1,.8-.65,9.18,9.18,0,0,0,3.42-1.21,8.5,8.5,0,0,0,2.13-1.94,9.92,9.92,0,0,0,1.37-2.51c.35-.94.71-1.91,1.06-2.93a1.29,1.29,0,0,1,.65-.79,2.41,2.41,0,0,1,1-.19,2.81,2.81,0,0,1,1,.22.85.85,0,0,1,.57.84l-.53,8.66,8.89-.53a.81.81,0,0,1,.91.38,2.41,2.41,0,0,1,.23,1.07,4.45,4.45,0,0,1-.27,1.56c-.17.48-.39.72-.64.72Z" transform="translate(-11.73 -8.77)"/><path class="cls-2" d="M308.91,108.06v23.1a10.1,10.1,0,0,0,.23,2.17,6.32,6.32,0,0,0,.72,1.86,3.69,3.69,0,0,0,1.33,1.33,4.15,4.15,0,0,0,2.13.49,15.88,15.88,0,0,0,1.86-.11,7.43,7.43,0,0,0,2.32-.72,6.65,6.65,0,0,1,.61-.27,1.81,1.81,0,0,1,.6-.11,1,1,0,0,1,.92.49,7.7,7.7,0,0,1,.53,1,.83.83,0,0,1-.38,1.06,13.83,13.83,0,0,1-4.33,2,19.91,19.91,0,0,1-4.41.46,8.79,8.79,0,0,1-3.34-.65,8.61,8.61,0,0,1-2.89-1.94,9.2,9.2,0,0,1-2.06-3.31,13.33,13.33,0,0,1-.76-4.67V107.91l-4.4.15a.88.88,0,0,1-.8-.42,1.7,1.7,0,0,1-.27-1,2.27,2.27,0,0,1,.27-1.1,1.27,1.27,0,0,1,.8-.65,9.31,9.31,0,0,0,3.42-1.21,8.28,8.28,0,0,0,2.12-1.94,9.61,9.61,0,0,0,1.37-2.51c.36-.94.71-1.91,1.07-2.93a1.28,1.28,0,0,1,.64-.79,2.43,2.43,0,0,1,1-.19,2.8,2.8,0,0,1,1,.22.84.84,0,0,1,.57.84l-.53,8.66,8.9-.53a.82.82,0,0,1,.91.38,2.41,2.41,0,0,1,.22,1.07,4.44,4.44,0,0,1-.26,1.56c-.18.48-.39.72-.65.72Z" transform="translate(-11.73 -8.77)"/><path class="cls-2" d="M355.42,132.46a17.63,17.63,0,0,1-5.93,5.85,15.77,15.77,0,0,1-8.2,2.12,19.5,19.5,0,0,1-7.76-1.44,15.32,15.32,0,0,1-5.54-4,17.1,17.1,0,0,1-3.35-5.85,21.78,21.78,0,0,1-1.14-7.07,18.73,18.73,0,0,1,1.18-6.5,18.51,18.51,0,0,1,3.38-5.78,17.11,17.11,0,0,1,5.32-4.1,15.6,15.6,0,0,1,7.07-1.56,18,18,0,0,1,6.12.95,12,12,0,0,1,7.22,6.73A16,16,0,0,1,355,117c0,1.78-.49,2.94-1.48,3.5a7.86,7.86,0,0,1-3.84.83H331.25a25.82,25.82,0,0,0,.69,6.16,14,14,0,0,0,2.13,4.86,9.85,9.85,0,0,0,3.72,3.2,12.24,12.24,0,0,0,5.47,1.13,10.45,10.45,0,0,0,5.47-1.36,14.23,14.23,0,0,0,4.41-4.79c.41-.51,1-.53,1.67-.08a1.68,1.68,0,0,1,.77,1A1.31,1.31,0,0,1,355.42,132.46ZM343.64,118.4a5,5,0,0,0,2.89-.73,3.13,3.13,0,0,0,1.22-2.47,10.89,10.89,0,0,0-.46-3.11,8,8,0,0,0-1.37-2.7,6.45,6.45,0,0,0-2.28-1.86,7,7,0,0,0-3.19-.69,7.93,7.93,0,0,0-6.38,3c-1.68,2-2.61,4.87-2.82,8.52Z" transform="translate(-11.73 -8.77)"/><path class="cls-2" d="M365.23,114.29v-1.94a3.83,3.83,0,0,0-.35-1.67,2.42,2.42,0,0,0-1.14-1.14,5.3,5.3,0,0,0-2.39-.42,3.81,3.81,0,0,1-1.25-.19c-.38-.12-.57-.57-.57-1.33a1.3,1.3,0,0,1,.3-.83,1.59,1.59,0,0,1,.91-.53c1.72-.26,3.14-.52,4.26-.8s2-.53,2.73-.76,1.27-.42,1.68-.57a5.39,5.39,0,0,1,1.21-.31,1.41,1.41,0,0,1,1,.23,1.43,1.43,0,0,1,.42,1.22V110h.22a29.59,29.59,0,0,1,5.32-4.14,10,10,0,0,1,5-1.64,5,5,0,0,1,4.1,1.94,6,6,0,0,1,1,2,7.42,7.42,0,0,1,.34,2.24,6.44,6.44,0,0,1-.3,1.94,5.79,5.79,0,0,1-.91,1.74,4.76,4.76,0,0,1-1.52,1.3,4.41,4.41,0,0,1-2.13.49,3.38,3.38,0,0,1-1.94-.49c-.48-.33-.75-.57-.8-.73s.24-.4.72-.91a2.65,2.65,0,0,0,.73-1.9,3.26,3.26,0,0,0-.73-2.2,2.41,2.41,0,0,0-1.93-.84A6.57,6.57,0,0,0,376,110a23,23,0,0,0-3.84,3.11v20.48a4,4,0,0,0,.34,1.68,2.41,2.41,0,0,0,1.18,1.13,5.58,5.58,0,0,0,2.43.42,5,5,0,0,1,1.18.12c.33.07.52.49.57,1.25a1.86,1.86,0,0,1-.3,1.06,1,1,0,0,1-.91.46c-1.47-.1-2.83-.16-4.07-.19s-2.55,0-3.91,0-2.66,0-3.88,0-2.56.09-4,.19a1,1,0,0,1-.91-.46,1.86,1.86,0,0,1-.3-1.06c.1-.76.3-1.18.6-1.25a5,5,0,0,1,1.22-.12,5.3,5.3,0,0,0,2.39-.42,2.36,2.36,0,0,0,1.14-1.13,3.88,3.88,0,0,0,.35-1.68V114.29Z" transform="translate(-11.73 -8.77)"/><path class="cls-2" d="M405.89,140.43a26.07,26.07,0,0,1-5.48-.53,15,15,0,0,1-4.33-1.56,8.21,8.21,0,0,1-2.85-2.54,6.13,6.13,0,0,1-1-3.5,4.93,4.93,0,0,1,1.33-3.57,4.62,4.62,0,0,1,3.46-1.37,3.43,3.43,0,0,1,2.25.72c.58.49.87.83.87,1s-.09.23-.27.38a4.4,4.4,0,0,0-.6.65,3.94,3.94,0,0,0-.61,1.06,3.83,3.83,0,0,0-.27,1.48,4.15,4.15,0,0,0,2,3.57c1.35.92,3.39,1.37,6.12,1.37a9.06,9.06,0,0,0,5.59-1.52,5.18,5.18,0,0,0,2-4.41,4.18,4.18,0,0,0-1.52-3.49,13.49,13.49,0,0,0-3.8-2,49,49,0,0,0-4.94-1.52,22.5,22.5,0,0,1-4.94-1.9,11.78,11.78,0,0,1-3.8-3.19,8.54,8.54,0,0,1-1.52-5.33,8,8,0,0,1,1.22-4.4,10.24,10.24,0,0,1,3.19-3.16,15.25,15.25,0,0,1,4.41-1.86,20.56,20.56,0,0,1,4.94-.61,18.08,18.08,0,0,1,4.07.46A12.34,12.34,0,0,1,415,106a8,8,0,0,1,2.51,2.24,5.6,5.6,0,0,1-.27,6.61,4.09,4.09,0,0,1-3.34,1.48,3.41,3.41,0,0,1-2.25-.72c-.58-.49-.87-.83-.87-1,0,0,.11-.16.34-.34a8.65,8.65,0,0,0,.76-.69,4.51,4.51,0,0,0,.76-1.07A3.19,3.19,0,0,0,413,111a3.82,3.82,0,0,0-.64-1.91,4.55,4.55,0,0,0-1.48-1.38,7.38,7.38,0,0,0-2.06-.81,10.71,10.71,0,0,0-2.35-.27,10.27,10.27,0,0,0-2.66.35,9,9,0,0,0-2.32,1,4.78,4.78,0,0,0-1.63,1.56,4,4,0,0,0-.61,2.18,6.17,6.17,0,0,0,.53,2.76,5.07,5.07,0,0,0,1.67,1.87,12.68,12.68,0,0,0,2.93,1.45c1.19.43,2.62.91,4.29,1.42s3.19,1.1,4.56,1.63a15.15,15.15,0,0,1,3.54,1.9,7.79,7.79,0,0,1,2.31,2.73,8.67,8.67,0,0,1,.84,4,9.45,9.45,0,0,1-1.06,4.44,10.66,10.66,0,0,1-2.93,3.46,14.59,14.59,0,0,1-4.41,2.28A17.75,17.75,0,0,1,405.89,140.43Z" transform="translate(-11.73 -8.77)"/></svg>