<?xml version="1.0" encoding="utf-8"?>
<!-- Generator: Adobe Illustrator 22.1.0, SVG Export Plug-In . SVG Version: 6.00 Build 0)  -->
<svg version="1.1" id="Layer_1" xmlns="http://www.w3.org/2000/svg" xmlns:xlink="http://www.w3.org/1999/xlink" x="0px" y="0px"
	 viewBox="0 0 450 450" style="enable-background:new 0 0 450 450;" xml:space="preserve">
<style type="text/css">
	.st0{fill:#FFFFFF;}
	.st1{fill:#FFFFFF;stroke:#000000;stroke-width:18;stroke-miterlimit:10;}
	.st2{fill:none;stroke:#000000;stroke-width:22.2754;stroke-linecap:round;stroke-miterlimit:10;}
	.st3{fill:none;stroke:#FFFFFF;stroke-width:16.3353;stroke-linecap:round;stroke-miterlimit:10;}
	.st4{fill:none;stroke:#000000;stroke-width:19.3053;stroke-linecap:round;stroke-miterlimit:10;}
	.st5{fill:none;stroke:#FFFFFF;stroke-width:21.5329;stroke-linecap:round;stroke-miterlimit:10;}
	.st6{fill:none;stroke:#FFFFFF;stroke-width:14.8503;stroke-linecap:round;stroke-miterlimit:10;}
	.st7{fill:none;stroke:#000000;stroke-width:26.7305;stroke-linecap:round;stroke-miterlimit:10;}
	.st8{fill:none;stroke:#FFFFFF;stroke-width:22.2754;stroke-linecap:round;stroke-miterlimit:10;}
	.st9{fill:none;stroke:#000000;stroke-width:23.7604;stroke-linecap:round;stroke-miterlimit:10;}
	.st10{fill:none;stroke:#FFFFFF;stroke-width:13.3652;stroke-linecap:round;stroke-miterlimit:10;}
	.st11{fill:none;stroke:#000000;stroke-width:16.3353;stroke-linecap:round;stroke-miterlimit:10;}
</style>
<g>
	<circle class="st0" cx="225" cy="225" r="225"/>
</g>
<g>
	<path class="st1" d="M273.2,61.7c19.1,1.6,34.4,16.3,37.3,35.2c3.7,23.8,18.2,43.5,18.2,43.5c18.6,23.8,30.3,43.7,37.5,59.5
		c10.5,23.2,12,49.5,4.1,73.8c-2.6,7.8-8,18.9-13.2,28.5c-8,14.9-17.7,28.7-29.1,41.1c-1.1,1.3-2.2,2.4-3.2,3.3
		c-4.8,4.8-11.4,10.3-15.5,13.5c-5.5,4.3-17.4,13.1-22.6,16.5c-11.7,7.7-25.1,12.5-39,13.9c-1.8,0.2-3.6,0.3-5.3,0.3h-34.1
		c-1.8,0-3.6-0.1-5.3-0.3c-13.9-1.4-27.3-6.2-39-13.9c-5.2-3.4-17.1-12.2-22.6-16.5c-4-3.2-10.6-8.6-15.5-13.5
		c-0.9-0.9-2-2.1-3.2-3.3c-11.4-12.4-21.2-26.2-29.1-41.1c-5.2-9.7-10.6-20.7-13.2-28.5c-7.9-24.2-6.4-50.6,4.1-73.8
		c7.2-15.8,18.8-35.7,37.5-59.5c0,0,14.8-20.1,18.3-44.2c2.7-18.6,18.1-32.7,36.8-34.2C205.9,59.6,244.3,59.3,273.2,61.7z"/>
	<path d="M101.1,251h240.6l0-93.4c-3.8-5.5-8.1-11.2-12.7-17.2c0,0-19.7-26.7-19-55.5c0.2-9.3-5.8-17.6-14.7-20.5
		c-13-4.3-127-4.2-140,0.1c-8.7,2.9-14.6,11.2-14.4,20.4c0.7,28.8-19,55.5-19,55.5c-8.2,10.5-15.1,20.2-20.8,29.2L101.1,251"/>
	<g>
		<line class="st2" x1="134.7" y1="295.6" x2="134.7" y2="194.7"/>
		<line class="st3" x1="154" y1="306.8" x2="154" y2="232.5"/>
		<line class="st4" x1="171.9" y1="278.6" x2="171.9" y2="245.9"/>
		<line class="st5" x1="192.3" y1="290.1" x2="192.3" y2="215.8"/>
		<line class="st2" x1="214.2" y1="312.7" x2="214.2" y2="245.9"/>
		<line class="st6" x1="232.8" y1="306.8" x2="232.8" y2="232.5"/>
		<line class="st7" x1="253.5" y1="278.6" x2="253.5" y2="204.3"/>
		<line class="st8" x1="278" y1="321.6" x2="278" y2="247.4"/>
		<line class="st4" x1="298.8" y1="297.1" x2="298.8" y2="221.4"/>
		<line class="st9" x1="342.6" y1="272.6" x2="342.6" y2="171.6"/>
		<line class="st8" x1="319.6" y1="297.1" x2="319.6" y2="222.9"/>
		<line class="st10" x1="116.9" y1="290.4" x2="116.9" y2="216.2"/>
		<line class="st11" x1="102.1" y1="260" x2="102.1" y2="187.2"/>
	</g>
</g>
</svg>
