<?xml version="1.0" encoding="utf-8"?>
<!-- Generator: Adobe Illustrator 22.1.0, SVG Export Plug-In . SVG Version: 6.00 Build 0)  -->
<svg version="1.1" id="Layer_1" xmlns="http://www.w3.org/2000/svg" xmlns:xlink="http://www.w3.org/1999/xlink" x="0px" y="0px"
	 viewBox="0 0 450 450" style="enable-background:new 0 0 450 450;" xml:space="preserve">
<style type="text/css">
	.st0{fill:#FFFFFF;}
	.st1{fill:#FFFF00;stroke:#000000;stroke-width:18;stroke-miterlimit:10;}
</style>
<title>drips</title>
<circle class="st0" cx="225" cy="225" r="225"/>
<path class="st1" d="M186.9,65.6L68,271.7c-17,29.3,4.2,65.9,38,65.9h238c33.8,0,55-36.6,38.1-65.9l-119-206.1
	C246.1,36.3,203.9,36.3,186.9,65.6z"/>
<path d="M208.2,291.1c-0.3-10.1,5.9-17.7,14.9-18.9c11.6-1.5,20.3,7.4,19.9,19.1c-0.4,9.4-6.5,16.7-16,17.3
	C217,309.2,208.5,301.1,208.2,291.1z M257.3,129.3L237.3,247c-1,5.7-5.9,9.9-11.7,9.9l0,0c-5.8,0-10.7-4.1-11.7-9.8l-21.1-117.7
	c-1.2-6.5,3.1-12.7,9.6-13.8c0.7-0.1,1.4-0.2,2.1-0.2h41.2c6.6,0,11.9,5.4,11.9,11.9C257.5,128,257.4,128.6,257.3,129.3z"/>
</svg>
