<?xml version="1.0" encoding="utf-8"?>
<!-- Generator: Adobe Illustrator 22.1.0, SVG Export Plug-In . SVG Version: 6.00 Build 0)  -->
<svg version="1.1" id="Layer_1" xmlns="http://www.w3.org/2000/svg" xmlns:xlink="http://www.w3.org/1999/xlink" x="0px" y="0px"
	 viewBox="0 0 308 105.8" style="enable-background:new 0 0 308 105.8;" xml:space="preserve">
<style type="text/css">
	.st0{fill:#969490;}
	.st1{fill:#949494;}
	.st2{fill:#FFFFFF;}
</style>
<title>2018LaManoLogo</title>
<path class="st0" d="M126.3,38.2l0,0.6v0.7l-0.3,0.8l-0.1,1l0.1,1.4l0.4,0.5l0.3,0.7l1.5,0.6l1.2,0.2l3,0.3l0.8-0.2l0.6,0.1h1.4
	l0.8-0.7l0.5-0.9l0.2-0.6l0.2-0.4l0.3-1l0.9-0.6l0.8,0.5l-0.1,0.6l-0.1,0.6l0.2,0.7v0.8l-0.1,0.6v2.3l-0.4,0.4l-1.9,0.1l-2.3,0.1
	l-0.7-0.1l-1.4,0.1h-5.7l-0.9-0.1l-0.8-0.2l-0.9,0l-1.1,0.3h-1.5l-1.2,0.1h-1.1l-1.1-0.2l-0.4-0.5l0.4-0.7l0.8-0.6l0.9-0.6l0.7-0.9
	l0.1-1l0.1-1.6l0-0.8l0.4-0.6l-0.1-1l-0.4-1.1l-0.3-1v-1l0.3-1.3l0.1-1.1l0.1-0.8l0-0.5l-0.2-0.2l-0.2-1l0.1-1l0.5-1.3l0-1.6
	l-0.1-1.1l-0.1-1v-1.4l0.1-0.6v-0.8l-0.3-0.5L120,21l-0.9-0.6l-0.7-0.5l-0.4-0.8l0.1-0.7l0.9-0.1l1,0.1l1.1,0.3h1l1.5,0l1.7-0.5
	l0.9,0.1l0.8,0.1l1-0.1l0.6,0.4l-0.2,0.5l-0.8,0.5l-0.7,0.5l-0.6,0.7l-0.3,1.1l-0.4,0.9l0.1,1.1v1.4l-0.1,1.2l-0.1,1.1l-0.2,0.7
	l-0.4,0.8l-0.1,0.2l0.7,0.4l0.4,0.6L126,31l-0.3,0.5l-0.1,0.8l-0.1,1.6l0.1,2l0.4,0.8L126.3,38.2z"/>
<path class="st0" d="M154.5,34.7l-0.6,0.1h-0.8l-0.9,0.2l-0.8,0.7l-0.3,0.9l-0.3,0.9l-0.4,0.7l-0.3,0.7l-0.3,1.1l-0.5,0.8l-0.5,1.5
	l-0.2,1l0.3,0.8l0.7,0.7l0.7,0.5l0.5,0.6l0.1,0.9l-0.2,0.4l-0.9,0.1l-1.6-0.2l-1.1,0.1l-1.7-0.1l-1.8-0.3l-1.3-0.7l0.3-0.7l0.9-0.4
	l1.2-0.8l0.9-0.6l0.5-0.9l1-1.8l0.5-0.7l0.6-0.9L149,39l0.2-1l0.2-0.9l0.2-0.9l0.4-0.9l0.5-0.9l0.7-1l0.2-0.8l0.2-0.8l0.3-1l0.4-0.5
	l0.5-0.9l0.3-1l0.1-0.5l0.3-0.7l0.3-0.7l0.4-0.8l0.4-0.6l0.4-1l0.2-0.8l0.4-0.5l0.3-0.9l0.1-0.7l0-0.9l0.1-1.6l0.7-0.5h0.8l0.4,0.6
	l0.1,1.1l0.2,0.8l0.4,0.9l0.5,0.9l0.5,1.2l0.2,1.3l0.2,0.8l0.5,0.8l0.4,1.5l0.3,0.6l0.1,0.9l0.3,0.7l0.2,0.9l0.3,0.6l0.2,0.3
	l0.1,0.8v1.1l0.6,1.2l0.5,1.1l0.5,1.1l0.3,0.8l0.3,0.7l0.3,0.7l0.2,0.5l0.3,0.8l0.1,0.7l0.1,0.9l0.6,0.4l0.6,0.9l0.2,0.9l0.8,0.9
	l1,0.5l0.6,0.6l-0.1,0.6l-0.7,0.5h-0.9l-2-0.1l-1.7-0.1l-1.6,0.1l-0.6,0l-1.6,0l-0.2-0.5l0.8-0.5l1-0.4l0.6-0.8l0.1-0.6l0-0.8
	l-0.2-0.7l-0.3-0.5l-0.3-1l0-0.7l-0.6-0.8l-0.3-0.5l-0.3-0.6l-0.1-0.9l-0.3-0.4l-0.4-0.7l-0.1-0.8l-0.4-0.7l-0.4-0.5l-0.3-0.2
	l-0.7-0.2l-0.9-0.1l-1.3,0L154.5,34.7z M157.3,26.5l-0.1-0.5l-0.6-0.3l-0.6,0.1l-0.3,0.3l-0.2,0.6l-0.4,0.6l-0.6,1l-0.2,0.7l-0.4,1
	v1l0.1,0.7l0.3,0.9l0.8,0.2l0.7,0.1l1-0.1l1-0.4l0.1-0.7l0-0.6l-0.3-1.1l-0.2-0.9v-0.9l-0.3-0.4l-0.3-0.6l0.2-0.5L157.3,26.5z"/>
<path class="st0" d="M198.7,38.7l1.4-0.4l0.5-0.6l0.1-1l0.1-0.7l0.3-0.8l0.5-1.1l0.5-1.3l0.2-1.7l0.3-1.5l0.6-0.9l0.6-1.1l0.8-1.6
	l0.7-1.6l0.6-1.3l0.4-0.9l0.4-1.7l0.6-1.1l0.6-0.6l0.9,0.1l1,0.1l1.1,0l1.3,0.1l0.8,0.2l1.2,0l0.5,0.6l-0.1,0.9l-0.5,0.4l-1.1,1.1
	l-0.5,1.4v1.3l0.2,1.1l-0.1,1.5l-0.2,0.6v1.3l-0.3,0.4v0.9l-0.1,0.9l-0.1,1l0.1,1.4l0.4,0.9l0.2,0.7l-0.3,1l-0.4,0.9l0,0.9l0,1
	l0.1,1.6l0.1,0.9l0.3,0.8l0.1,0.7l-0.4,0.4l0.1,0.7l0.5,0.7l0.9,0.7l0.6,0.4v0.4l-0.7,0.3l-0.9,0.1l-0.8,0l-1,0.4l-1.3,0.2l-1.1,0.1
	l-0.9-0.1l-0.2-0.3l-0.4,0.3h-0.6l-0.6-0.3v-0.7l0.3-1l0.8-0.3l0.4-0.8l0.5-1.1l-0.1-1l-0.3-0.7v-0.7l0.1-1.1l0.3-0.7l0.2-1.4l0-1
	l-0.1-0.8l0-2.2v-1.9l0.3-1.1l0.1-0.8l-0.1-0.6l0.1-0.9l0.1-1.3l0.3-0.4l-0.1-1l-0.7-0.6l-0.7,0.2l-0.5,1.2l-0.2,0.7l-0.3,0.4
	l-0.2,0.9l-0.2,0.8l-0.4,0.6l-0.5,0.7l-0.3,1.1l-0.3,0.7l-0.2,0.7l-0.6,1.3l-0.2,0.5l-0.3,0.8L202,37l-0.6,1.3l-0.8,1.3l-0.3,0.7
	l-0.5,1.4l-0.5,1.4l-0.4,1l-0.6,1l-0.4,0.4l-0.3,0.8l-0.3,0.8l-0.5,0.1l-0.4-0.9l-0.5-1.1l-0.4-1.2l-0.6-1.2l-0.2-0.6l0.4-0.4
	l-0.1-0.8l-0.6-0.5l-0.8-0.7l-0.2-0.6v-0.7l-0.7-0.6l-0.9-1.1l-0.6-1l-0.2-1.4l-0.5-0.9l-0.3-0.9l-0.5-0.8l-0.4-0.8l-0.6-0.9
	l-0.2-0.6l-0.6-0.6l-0.3-0.8l-0.1-0.7l-0.4-0.8l-0.6-0.6l-0.6-0.2l-0.5,0.1l-0.1,0.9l0.1,0.8l0.2,1.3l0,0.8l-0.1,0.9l-0.1,1l0.1,1.7
	v1.2l0.1,2l0.1,1.8l0.2,1.3l0.2,0.8l-0.1,1l-0.3,0.7l-0.1,0.8L186,44l0.6,0.6l0.4,0.6l0.8,0.9l0.5,0.7l-0.1,0.5l-0.8,0.3l-1-0.2
	l-0.5,0.2l-0.8-0.2h-2.9l-1,0.2l-0.6-0.2l-0.1-0.6l0.6-0.5l1.1-0.5l0.6-1l0.4-0.9l0.3-1l-0.3-2.2l0.3-1.3l0-1.2l0.4-1l0.2-0.7
	l-0.3-0.6l-0.1-0.9l0.2-0.9l-0.1-1.1l-0.1-0.8l0.1-0.5l-0.1-0.4l0.1-0.9l0.4-0.4l0-0.6l-0.5-0.7l-0.2-0.9l0.3-0.9l0.3-1L184,25
	l-0.1-0.8l-0.4-0.5l-0.4-0.7l-0.1-0.7v-0.7l-0.5-0.7l-0.7-0.4l-0.8-0.5l-0.4-0.1l-0.3-0.6l-0.1-0.8l0.3-0.4l0.5-0.1l1.1,0.4l1.4,0.1
	l1-0.1l0.6,0.1l1.4,0.2l1-0.2h0.6l1.5,0l0.3,0.5l-0.3,0.9l-0.3,1.1l0.1,0.8l0.1,0.9l0.7,0.4l0.5,0.5l0.5,0.9l0.6,1l0.5,0.8l0.3,0.9
	l0,0.8l0.5,0.6l0.6,0.6l0.5,0.4l0.2,0.8l0.4,0.9l0.3,0.7l0.4,1l0.4,1l0.2,1.2l0.4,1.4l0.6,1L198.7,38.7z"/>
<path class="st0" d="M228.5,34.7l-0.6,0.1h-0.8l-0.9,0.2l-0.8,0.7l-0.3,0.9l-0.3,0.9l-0.4,0.7l-0.2,0.7l-0.3,1.1l-0.5,0.8l-0.5,1.5
	l-0.2,1l0.3,0.8l0.7,0.7l0.7,0.5l0.5,0.6l0.1,0.9l-0.2,0.4l-0.9,0.1l-1.6-0.2l-1.1,0.1l-1.7-0.1l-1.8-0.3l-1.3-0.7l0.2-0.7l0.9-0.4
	l1.2-0.8l0.9-0.6l0.5-0.9l1-1.8l0.5-0.7l0.6-0.9L223,39l0.2-1l0.2-0.9l0.2-0.9l0.4-0.9l0.5-0.9l0.7-1l0.2-0.8l0.3-0.8l0.3-1l0.4-0.5
	l0.5-0.9l0.3-1l0.1-0.5l0.3-0.7l0.3-0.7l0.4-0.8l0.4-0.6l0.4-1l0.2-0.8l0.4-0.5l0.3-0.9l0.1-0.7l0-0.9l0.1-1.6l0.7-0.5h0.8l0.4,0.6
	l0.1,1.1l0.2,0.8l0.4,0.9l0.5,0.9l0.5,1.2l0.2,1.3l0.2,0.8l0.5,0.8l0.4,1.5l0.3,0.6l0.1,0.9l0.2,0.7l0.2,0.9l0.3,0.6l0.2,0.3
	l0.1,0.8v1.1l0.6,1.2l0.5,1.1l0.5,1.1l0.3,0.8l0.2,0.7l0.3,0.7l0.2,0.5l0.3,0.8l0.1,0.7l0.1,0.9l0.6,0.4l0.6,0.9l0.3,0.9l0.8,0.9
	l1,0.5l0.6,0.6l-0.1,0.6l-0.7,0.5h-0.9l-2-0.1l-1.7-0.1l-1.6,0.1l-0.6,0l-1.6,0l-0.2-0.5l0.8-0.5l1-0.4l0.6-0.8l0.1-0.6l0-0.8
	l-0.2-0.7l-0.2-0.5l-0.3-1l0-0.7l-0.6-0.8l-0.3-0.5l-0.3-0.6l-0.1-0.9l-0.3-0.4l-0.4-0.7l-0.1-0.8l-0.4-0.7l-0.4-0.5l-0.3-0.2
	l-0.7-0.2l-0.9-0.1l-1.2,0L228.5,34.7z M231.2,26.5l-0.1-0.5l-0.6-0.3l-0.6,0.1l-0.2,0.3l-0.2,0.6l-0.4,0.6l-0.6,1l-0.2,0.7l-0.4,1
	v1l0.1,0.7l0.3,0.9l0.8,0.2l0.7,0.1l1-0.1l1-0.4l0.1-0.7l0-0.6l-0.3-1.1l-0.2-0.9v-0.9l-0.3-0.4l-0.3-0.6l0.2-0.5L231.2,26.5z"/>
<path class="st0" d="M270.2,47.8l-0.8-0.1l-0.8-0.2l-0.8-0.6l0-0.7l-0.3-0.9l-0.4-0.3l-0.4-0.6l-0.6-0.5l-0.7-0.6l-0.4-0.4l-0.4-0.8
	l-0.5-0.8l-0.6-0.7l-0.5-0.6l-0.7-0.5l-0.6-0.9l-0.7-0.6l-0.6-0.6l-0.4-0.6l0.1-0.9l-0.3-0.4L259,35l-0.4-0.3l-0.5-0.4l-0.5-0.5
	l-0.4-0.6l-0.6-0.8l-0.8-0.8l-1.1-1l-1.2-1.5l-0.5-1l-0.5-0.9l0.1-0.8l-0.7-0.4l-1,0.3l-0.2,0.9l0.4,1.5v3.1l-0.5,2.3v1.5l-0.1,1.8
	l0.1,1l-0.1,0.5l0.2,1l0.1,1l0.1,1.6l0.4,1l0.9,0.7l0.6,0.4l0.4,0.7l1,0.7l0.8,0.4l0.6,0.4l0.1,0.5l-0.6,0.5l-1.1-0.3l-1.1-0.1
	l-1.1,0.1l-0.8,0.2l-0.9-0.2l-0.6-0.2l-0.9,0.2l-0.9-0.1l-0.9-0.2l-0.9-0.6l0.3-0.6l0.6-0.4l1-0.7l0.3-0.9l0.4-1l0.4-0.6l0.1-1.6
	l-0.1-4l0.2-0.8l0.2-0.7l-0.3-0.9l0-1.7l-0.1-3.8l0.2-0.8l0.1-0.7l-0.1-0.8l0-1.1v-1.6l-0.2-1.4l-0.5-1l-0.8-0.7l-0.8-0.5l-0.6-0.6
	v-0.8l0.6-0.2l0.8,0.2l1.5,0l1.4,0.2l1.2,0.2L253,19l1.2,0.1l0.5,0.6l-0.1,0.8l-0.3,0.4l0.2,0.7l0.1,0.4l0.3,0.7l0.5,0.4l0.4,0.5
	l0.6,1.1l1.4,1.5l0.9,1l0.5,0.7l0.1,0.6l1.1,0.9l1.2,1.4l1.3,1.2l0.6,0.8l0.9,1l0.7,1.4l0.8,0.9l0.9,0.5l0.6,0.7l0.4,1.1l0.9,0.6
	l0.9-0.7l-0.4-1.1l-0.3-1.3l0.3-1.2l0.4-0.8l-0.1-0.8l0.3-1.1l-0.2-1l-0.3-0.7l-0.1-1l0.2-1.4l0-1.2l0.1-1.2l-0.3-0.9l-0.1-0.8v-1.2
	l-0.2-0.8l-0.6-1l-0.8-0.3l-0.9-0.3l-0.7-0.6l-0.4-0.7l0.6-0.4l0.9,0.1h0.9l0.8-0.2l1.4,0h0.8l1.3,0.5l0.7,0.1l1,0l0.3,0.6l-0.5,0.7
	l-0.8,0.2l-0.4,0.6l-0.4,1l-0.7,1.4l-0.2,1.5l-0.4,1.4l0.2,1.7l0,1.4l-0.2,3.1l-0.1,2.9l0.1,4.1l-0.1,0.9l0.2,1.1l0.2,1.9l0,1.3
	l-0.1,0.9l0,1.8L270.2,47.8z"/>
<path class="st0" d="M293.9,17.8l1.3,0l1.3,0.2l2.7,1l1.5,0.8l1.7,1.5l0.9,1.2l1.1,1.2l0.9,0.9l0.5,0.8l1.5,2.4l0.4,1.1L308,30
	l-0.2,1l-0.2,1l0.4,1v2.6l-0.3,1.8l-0.5,0.9l-0.8,1.6l-0.2,0.6l-0.3,0.2l-0.4,0.7l-1.4,1.9l-2.8,2.3l-2.9,1.6l-2,0.8l-2.3-0.1
	l-2,0.1l-0.8,0.1l-1.7-0.1l-0.6-0.2l-1,0.1l-1.7-0.3l-1.6-0.7l-1.4-1.1l-0.9-0.7l-0.7-0.5l-0.8-1.4l-0.6-0.8l-1.2-1.1l-0.6-1
	l-0.7-1.2l-1.1-2l-0.1-0.8l0-1.5l-0.1-1.5l-0.1-1.4l-0.1-1.2l0.3-1.1l0.3-1l0.5-1.3l0.5-1.1l0.4-0.6l0.5-0.9l0.4-0.4l0.1-0.7
	l0.7-0.7l0.9-1l0.7-0.4l1.2-1.1l1.7-0.8l1.1-0.5l1.3-0.4l1.2-0.2l1.2-0.4h1.5l1.5-0.1L293.9,17.8z M294.8,19.6l-1.4-0.3h-2.6
	l-1.5,0.4l-1.4,0.7l-1.5,1.1l-0.5,0.3l-0.5,0.8l-0.7,0.8l-0.6,0.9l-0.7,1.9l-0.3,0.8l-0.7,1.2l-0.6,1l-0.2,0.9l0.4,0.6l0.5,0.5
	l0.1,0.9l-0.2,1.5v1.9l0.4,1.7l0,1.6l0.3,1.8l0.9,1.6l0.6,0.9l1.5,1l1,0.4l0.7,0.1l0.4,0.3l1.2,0.5l1.2,0l1.2,0.2l0.8,0.5l1.4-0.2
	l1.2-0.4l1-0.4l1.8-1l1.7-1.5l1-1.3l0.5-2.1l0.3-2l0.4-0.9l0.2-1.6l-0.1-1l-0.5-0.8l-0.2-1l0.2-0.4l-0.1-0.8l0-0.9l0.2-1.1l0.4-0.8
	l-0.2-0.9l-0.7-0.9l-0.8-0.4l-1.1-0.9l-0.9-1.4l-1.2-1.2l-0.8-0.7l-0.9-0.7L294.8,19.6z"/>
<path class="st0" d="M120,69.1l-0.1-0.8l0-3.5l0-0.7l0.2-0.6l-0.1-0.8l-0.1-0.7l-0.3-1l-0.6-0.7l-0.7-0.4l-0.6-0.6l-0.2-0.7l0.8-0.6
	l1.2-0.2l1.4,0.1l1.1,0.1l0.7-0.3l0.6-0.1l0.9,0.1l1,0.1l0.9,0.3l0.8-0.2l1,0l1.6,0l0.9,0.2l0.9,0.3l1.3,0.2l1,0.4l1,0.6l0.9,0.8
	l0.9,0.6l0.7,1.1l0.7,0.7l0.2,0.9l0.3,1.1l0.1,1.2l-0.1,1l0.1,1.4l-0.3,0.7l-0.6,0.4l-0.6,0.5l-0.8,1.3l-1.2,0.8l-1.4,0.8h-1.1
	l-2,0.2h-4l-0.6-0.1l-0.5,0.3l-0.4,0.6l-0.2,1.1l0,1.1l0.3,0.8l-0.1,0.9l-0.7,0.9l-0.1,0.8l0.5,0.5l0.4,0.4l-0.1,1l0,1.2l-0.3,0.4
	l0.2,0.7l0.8,0.7l0.8,0.7l0.7,0.6l0.2,0.9l-0.6,0.5l-1-0.2h-1.1l-1.1-0.2l-1.1-0.1l-1.3,0l-0.9-0.2l-1.2,0.4l-0.8,0.1l-0.9-0.5
	l0.2-0.5l0.8-0.7l0.8-0.8l0.7-0.6l0-0.5l0-1v-1.8l-0.1-0.8l0.1-1.4l0.3-0.7l-0.3-1.4l-0.1-1.1l-0.1-0.9l0.1-1.2v-1.5l-0.1-0.6
	l0.2-1.5L120,69.1z M128.4,60.1l-1.1,0.1l-1,0.1l-0.8,0l-0.4,0.6l0.2,1l0.5,1l-0.2,0.8l-0.2,1.1l-0.4,0.8v1.1l0.3,1.1l0.2,0.6
	l-0.3,0.8l-0.1,1.2l0.4,0.6h0.9l0.8-0.1l1,0.1l1.4,0.1l1.4-0.4l0.8-0.7l0.7-0.7l0.1-1.1l0.1-0.7l0.6-0.5l0.7-0.5V66l-0.4-0.8
	l-0.8-0.8l-0.3-1.2l0.1-1l-0.6-0.6l-0.7-0.6l-0.9-0.3l-0.8-0.3l-0.8-0.2L128.4,60.1z"/>
<path class="st0" d="M159.8,57.4l1.3,0l1.3,0.2l2.7,1l1.5,0.8l1.7,1.5l0.9,1.2l1.1,1.2l0.9,0.9l0.5,0.8l1.5,2.4l0.4,1.1l0.2,1.1
	l-0.2,1l-0.2,1l0.4,1v2.6l-0.3,1.8l-0.5,0.9l-0.8,1.6l-0.2,0.6l-0.2,0.2l-0.4,0.7l-1.4,1.9l-2.8,2.3l-2.9,1.6l-2,0.8l-2.3-0.1
	l-2,0.1l-0.8,0.1l-1.7-0.1l-0.6-0.2l-1,0.1l-1.7-0.3l-1.6-0.7l-1.4-1.1l-0.9-0.7l-0.7-0.5l-0.8-1.4l-0.6-0.8l-1.3-1.1l-0.6-1
	l-0.7-1.2l-1.1-2l-0.1-0.8l0-1.5l-0.1-1.5l-0.1-1.4l-0.1-1.2l0.3-1.1l0.3-1l0.5-1.3l0.5-1.2l0.4-0.6l0.5-0.9l0.4-0.4l0.1-0.7
	l0.7-0.7l0.9-1l0.7-0.4l1.2-1.1l1.7-0.8l1.1-0.5l1.3-0.4l1.2-0.2l1.2-0.4h1.5l1.5-0.1L159.8,57.4z M160.7,59.3l-1.4-0.3h-2.6
	l-1.5,0.4l-1.4,0.7l-1.5,1.1l-0.5,0.3l-0.5,0.8l-0.7,0.8l-0.6,0.9l-0.7,1.9l-0.3,0.8l-0.7,1.2l-0.6,1l-0.2,0.9l0.4,0.6l0.5,0.5
	l0.1,0.9l-0.3,1.5v1.9l0.4,1.7l0,1.6l0.3,1.8l0.9,1.6l0.6,0.9l1.5,1l1,0.4l0.7,0.1l0.4,0.3l1.2,0.5l1.2,0l1.2,0.2l0.8,0.5l1.4-0.2
	l1.2-0.4l1-0.4l1.8-1l1.7-1.5l1-1.3l0.5-2.2l0.3-2l0.4-0.9l0.2-1.6l-0.1-1l-0.5-0.8l-0.2-1l0.2-0.4l-0.1-0.8l0-0.9l0.2-1.1l0.4-0.8
	l-0.2-0.9l-0.7-0.9l-0.8-0.4l-1.1-0.9l-0.9-1.4l-1.2-1.2l-0.8-0.7l-0.9-0.7L160.7,59.3z"/>
<path class="st0" d="M191,80.2l-0.2,1l-0.1,0.9l0.4,1.5l1.2,1.5l1.6,0.9l0.4,0.8l-0.4,0.3h-1.2l-0.9-0.2H189l-1.9,0l-1.5,0l-1.3,0.3
	l-0.7,0.2l-0.5-0.5l-0.1-0.7l0.6-0.6l0.7-0.4l0.9-0.9l0.2-1.1l0.1-1.1l-0.2-0.8v-0.6l0.2-0.9l-0.1-0.9l-0.1-1.9l-0.1-1.6l0-0.8
	l0.1-3.8l0.1-0.5v-2.4l-0.2-0.6l-0.2-0.5v-1.4l0.1-0.7l0-0.3l0.1-1.3l-0.2-0.6l-0.2-0.6l-0.2-0.9l-0.4-0.4l-0.7-0.6l-0.8-0.4L182,60
	l-0.5,0.4l-0.9,0.3l-1,0.5l-0.7,0.8l-0.2,0.7l-0.5,0.4l-0.5,0.6l-0.8,0.6l-0.7-0.3l-0.1-0.5l0.2-0.5l0.1-0.6l0-0.7l-0.1-0.7l0.1-0.7
	l-0.3-0.8l-0.2-0.7l0-0.6l0.7-0.4l0.5-0.1l1,0.2l1.7,0.7l0.9-0.2l0.6-0.2l0.6-0.2l0.9,0.1l1.5,0.3l0.8,0.1l1.7,0.4l0.9-0.3l0.8-0.1
	l0.6-0.4l0.8,0l2.1-0.1h1l0.9,0.3l1.1,0.3l1.2-0.3l0.8-0.2l1-0.1h1l0.2,1.1l-0.4,1.3l-0.6,1.5v2.1l-0.6,0.3l-0.8-0.2l-0.3-0.8
	l-0.2-1l-0.7-1.1l-1.2-0.7l-0.8-0.4l-0.4,0.2l-0.7,0.1l-0.8-0.2l-1-0.2l-0.7,0.2l-0.3,1.1v2.5l0,1.9l0.1,0.7l-0.1,0.7l-0.1,2.6
	l0.2,0.9l0,2l-0.1,0.6l-0.1,1.6l0.3,0.7l0,1.5l0.1,1.1l0.2,0.5l-0.1,0.9l0.2,0.7L191,80.2z"/>
<path class="st0" d="M218,80.2l-0.2,1l-0.1,0.9l0.4,1.5l1.2,1.5L221,86l0.4,0.8l-0.4,0.3h-1.2l-0.9-0.2h-2.8l-1.9,0l-1.5,0l-1.3,0.3
	l-0.7,0.2l-0.5-0.5l-0.1-0.7l0.6-0.6l0.7-0.4l0.9-0.9l0.2-1.1l0.1-1.1l-0.2-0.8v-0.6l0.2-0.9l-0.1-0.9l-0.1-1.9l-0.1-1.6l0-0.8
	l0.1-3.8l0.1-0.5v-2.4l-0.2-0.6l-0.2-0.5v-1.4l0.1-0.7l0-0.3l0.1-1.3l-0.2-0.6l-0.2-0.6l-0.2-0.9l-0.4-0.4l-0.7-0.6l-0.8-0.4
	l-0.8,0.2l-0.5,0.4l-0.9,0.3l-1,0.5l-0.7,0.8l-0.2,0.7l-0.5,0.4l-0.5,0.6l-0.8,0.6l-0.7-0.3l-0.1-0.5l0.2-0.5l0.1-0.6l0-0.7
	l-0.1-0.7l0.1-0.7l-0.3-0.8l-0.3-0.7l0-0.6l0.7-0.4l0.5-0.1l1,0.2l1.7,0.7l0.9-0.2l0.6-0.2l0.6-0.2l0.9,0.1l1.5,0.3l0.8,0.1l1.7,0.4
	l0.9-0.3l0.8-0.1l0.6-0.4l0.8,0l2.1-0.1h1l0.9,0.3l1.1,0.3l1.2-0.3l0.8-0.2l1-0.1h1l0.2,1.1l-0.4,1.3l-0.6,1.5v2.1l-0.6,0.3
	l-0.8-0.2l-0.3-0.8l-0.2-1l-0.7-1.1l-1.2-0.7l-0.8-0.4l-0.4,0.2l-0.7,0.1l-0.8-0.2l-1-0.2l-0.7,0.2l-0.3,1.1v2.5l0,1.9l0.1,0.7
	l-0.1,0.7l-0.1,2.6l0.2,0.9l0,2l-0.1,0.6l-0.1,1.6l0.3,0.7l0,1.5l0.1,1.1l0.2,0.5l-0.1,0.9l0.2,0.7L218,80.2z"/>
<path class="st0" d="M240.3,70.9l1.2-0.1l1-0.5l0.7-0.3l0.7-1l1-1l0.7,0.1l0.2,1.4l-0.1,1.1l-0.3,0.7l0.3,1.6l0.1,2.5l-0.8,0.7
	l-1.1-0.8l-0.5-1l-0.9-0.4l-0.9-0.2l-1.2-0.8l-1.3-0.3l-0.8,0.3l-0.1,0.7l0.4,0.9l0.2,1.3l-0.3,1.3l-0.3,0.8l0.2,0.7l0,0.8l0.3,0.8
	l-0.2,0.9l-0.1,0.9l0.2,1.1l0.3,1l0.7,0.7l0.9,0.6l1.5,0.1l1.5-0.3l0.6-0.2l1-0.1l1-0.4l1-1.1l0.4-0.5l0.3-1l1-1.6l0.8-0.2l0.5,0.3
	l0.1,1.1l0.1,0.7l-0.4,0.6l0,1l0.3,1l-0.2,1.2l-0.7,1h-1.6l-1.1-0.1h-1.9l-2.3,0.1l-1.3,0.2l-1.3-0.2L238,87l-1.4,0l-1.6,0.1h-3.6
	l-1.3-0.6l0.2-0.6l0.9-0.5l1-0.6l0.7-0.8l0.3-1.2l0.1-1.1l0-1.2l0.1-2.1l-0.1-0.9l0.2-1.3l-0.1-1l0-1.4L234,73l-0.1-0.8l-0.5-0.9
	l0.1-0.7l0.2-0.6l-0.2-0.7l0.2-1.3l0.2-1.1l0.5-1.1l-0.1-1.3l-0.2-0.9l-0.2-1.6l-0.2-0.9l-0.8-0.7l-1.3-1l-0.8-0.8l0.3-0.7l1.3-0.2
	l1.1,0.2l1.3,0.2l1.4,0.4l1-0.2l1-0.2l1.1,0.1l1-0.1l1.6-0.3l1.5,0.2l1.1,0l1.3,0.4l0.8-0.1l1-0.1l1.3,0.1l1.5,0.7l0.5,0.6l0.2,1.5
	l0.2,1.3l-0.3,1.1l-0.5,0.2l-1-0.9l-0.4-1l-1.3-0.7l-2.2-1.1l-0.9-0.2l-0.8,0.2L243,60l-0.9-0.5l-1.3-0.3h-1l-0.8,0.4l-0.3,0.9
	l0.4,1.2l0.2,1.2l-0.3,1.2l-0.4,1.1l0.2,0.9l0.3,0.7l0.1,1l-0.2,0.9l0,1l0.2,0.8l0.7,0.3L240.3,70.9z"/>
<path class="st0" d="M262.1,74.6l0.5,1.2l0.2,1.3l-0.1,1.5l-0.5,0.7l-0.2,0.5l0.4,0.4l0.4,0.7l0,1.8l0.4,1.6l0.6,0.9l1.7,0.9
	l0.4,0.4l-0.5,0.2l-1,0.2l-1.3,0h-1.7l-0.9-0.1l-0.9,0.1l-1.5,0.3l-1.5,0.1l-1.5-0.4l0.3-0.7l1-0.6l1-1l0.5-1.7l-0.1-2.3v-2.4
	l0.2-1.5l0-2.7l-0.1-2.1v-1l0.1-2.6l0.1-1.7l-0.2-1.6l-0.1-1.1l0.1-1.4l-0.4-0.3l0-0.9l-0.4-0.7l-0.8-0.4l-0.6-0.8v-0.8l0.6-0.5
	l0.9,0.1l1.4,0h1.2l0.7,0.3l0.8-0.2l1.3-0.1l1.6-0.2l1.9,0.2l1.1,0.2l0.8,0.3h0.8l0.9,0.2l2.5,1.3l1,0.9l1,1.1l0.7,1.1l0.5,1.6
	l0.2,1.4l-0.1,1.2l-0.4,0.9l-0.8,1.1l-0.7,0.8l-0.5,0.7l-0.7,0.3l-1,0.4l-0.7,0.4l-0.3,0.5l0.5,0.4l0.7,0.5l0.7,1.6l0.3,1.6l0.1,1.4
	l0.4,1.6l0.3,1l0.1,0.8l0.5,1.1l0.8,0.5l1.1,0.2l0.6,0l-0.4,0.9l-0.9,1.6l-1.4,0.9l-0.7,0.3l-1.4-0.6l-0.9-1l-0.2-0.5l-0.5-0.7
	l-0.5-1.1l-0.6-1.6l-0.6-1.9l0.1-1.2l-0.3-2l-0.6-1.1l-1-1.4l-1.4-0.7l-1.4,0.2l-1.1,0.6L262.1,74.6z M265,60.1l-1,0.1l-0.7,0.5
	l-0.6,1l-0.2,1.5l-0.2,1l-0.4,0.7l-0.1,0.6l0.8,0.3l0.1,0.4l0,1.1v2.7l0.5,0.6l1,0.5l0.9-0.1l0.3,0.2l1.3-0.1l0.9-0.2l1.6-1.3
	l0.8-1.5l0.3-0.3l0.2-0.7l-0.1-0.6l-0.4-1l-0.1-0.8l-0.1-0.8l-0.7-1.3l-0.7-0.7l-0.5-0.6l-0.6-0.5l-1-0.3l-0.8-0.2L265,60.1z"/>
<path class="st0" d="M298.7,68.4l-0.8,0.8l-0.8,0.7l-0.2,0.8l-0.4,0.6l-0.5,0.7v1l0,2.9v1.3l-0.1,0.9l-0.1,1.1l0.4,1.5l0.3,1.3
	l0.2,0.7l0.4,1.3l0.8,0.9l0.8,0.6l0.5,0.6l0,0.9l-0.7,0.2l-1.8-0.1l-1.9-0.1l-1.2-0.2h-1.5l-1.3,0.2l-1.8,0.1l-0.6-0.5l0.4-0.5
	l1.2-0.5l0.7-0.9l0.5-0.8l0.1-0.8l-0.3-0.9l-0.1-0.8l-0.1-1l0.2-1.6v-1.5l-0.1-3.1l-0.2-0.7l-0.3-0.9l-0.2-0.6l-0.6-0.5l-0.8-0.7
	l-0.2-0.8l-0.4-0.9l-1.1-0.6l-0.4-0.8l-0.6-1l-0.6-1l-0.4-0.7l-0.8-0.8l-1.4-1.6l-1.1-0.8l-0.7-0.8l-0.1-0.7l-0.7-0.5l-1-0.5
	l-0.5-0.6l0.8-0.4l1.3-0.2l2.1-0.1l1.4,0.2l1.7-0.4l1.5-0.3l1.6-0.1l0.6,0.5l-0.3,0.7l0.1,0.7l-0.5,0.6l-0.2,0.7l0.5,0.8l0.1,0.8
	l0.2,0.8l0.7,1.1l0.6,1l0.1,0.8l0.8,0.5l0.8,0.1l0.6,0.6l0.5,1.1l0.8,0.8l0.8,0l0.7-1l0.7-1.1l0.9-1.1l0.5-0.9l0.8-1.1l0.6-1
	l0.4-0.8l-0.1-1l-0.7-1l-1.1-0.8l-0.5-0.7l0.4-0.8h0.8l1.6,0l1.3,0.1l1.5,0.7l1.7-0.2h0.8l0.7,0.6l-0.4,1l-1.1,0.4l-0.7,0.7l-1,1.3
	l-0.9,1.3l-0.7,0.8l-0.5,0.6l-0.6,0.7l-0.7,0.8l-0.3,0.7l-0.5,0.7L298.7,68.4z"/>
<path class="st1" d="M42.5,0c0.2,0.2,0.5,0.6,0.2,0.9c0.6-0.1,0.7-0.8,1.5-0.6c0.2,0.5-0.1,0.5,0.2,0.9c0.6,0,0.8-0.6,1.2-0.8
	c0.9,0.6,2.4-0.2,3.2,0.6c0.5-0.2,1.1-0.3,1.7-0.3c0.4-0.4,0.6-1.1,1.4-0.6c0.1,0.6-0.6,0.3-0.6,0.8c0.8-0.4,1.4,0.2,2,0.5
	c1-0.6,2.4,0.8,3.2-0.2c-0.7-0.3-1.9,0-2.3-0.6c-0.7-0.1-0.9,0.2-1.5,0.2c-0.2-1.1,1.2-0.7,2.1-0.8c1.3,0.6,3.4,0.4,4.9,0.9
	c0.6,0.1,0.7-0.2,1.2-0.2c0.8,1.2,3.7,0.3,4.4,1.5c0.4,0,0.4-0.3,0.9-0.2c0.7,0.5,1.6,0.7,2.4,0.6c0.3,0.3,0.8,0.5,1.2,0.5
	c0.1,0.2,0.2,0.4,0.3,0.6H71c1.4,1.3,3.8,1.5,5,2.9c0.5-0.1,0.6,0.2,1.1,0.2c0.2,0.6,0.7,0.8,1.4,0.9c0.2,0.3,0.4,0.6,0.6,0.9
	c0.4-0.1,0.3,0.3,0.8,0.2c0.5,0.7,1.2,1.2,2,1.5c0,0.7,0.9,0.7,1.1,1.2c0.5,0.1,0.9,0.2,1.4,0.5c0.5,0.5,0.8,1.1,1.2,1.7
	c0.2,0.2,0.7,0.1,0.9,0.3c-0.1,0.4,0.3,0.3,0.2,0.8c1.6,1.1,2.5,2.9,4.1,4c0.1,0.5,0.4,0.8,0.5,1.4c0.3,0.6,1.1,0.7,1.5,1.2
	c-0.1,0.9,0.6,1.7,1.5,1.8c0.1,0,0.1,0,0.2,0c-0.3,1.5,0.8,1.5,1.5,2c-0.6,1.3,0.8,1.5,0.9,2.6c0.1,0.5-0.2,0.6-0.5,0.8
	c0.5,0.5,1.1,1.7,0.5,2.4c0,0.5,0.5,0.5,0.8,0.8c0,0.7,0.4,1,0.3,1.8c0.5,0.3,1,0.6,1.4,0.9c-0.3,1.2,1.2,1.7,0.3,2.6
	c-0.1,0.6,0.6,0.3,0.6,0.8c0.1,0.6,0.2,1.2,0.2,1.8c0.2,0.6,0.7,0.9,0.9,1.4c-0.3,0.9,0.3,1,0,1.8c0,0.6,0.5,0.7,0.6,1.2
	c0.1,0.5-0.1,0.7-0.2,1.1c0.2,1,1,2.4,0.3,3.2c0.1,0.5,0.3,1,0.3,1.5c0,0.4,0,0.8-0.3,0.9c0.7,1.2,0.2,3.1,0.5,4.4
	c0.1,0.5-0.2,0.6-0.2,1.1c-0.1,0.6,0.3,0.6,0.3,1.1c-0.5,0.3-0.3,1.3-0.8,1.7c0.2,0.4,0.2,0.8,0,1.2c-0.1,0.5,0.5,0.4,0.5,0.9
	c-0.1,1.3-1.2,1.8-1.1,3.4c-0.1,0.5-0.5,0.7-0.6,1.2c-0.1,0.7,0,1.4,0.3,2c-0.3,0.2-0.4,0.6-0.8,0.8c0.1,0.6-0.1,1.1-0.5,1.5
	c-0.1,0.6-0.2,1.2-0.2,1.8c-0.3,0.6-0.5,1.2-0.6,1.8c-0.3,0.3-0.6,0.6-0.9,0.9c0,0.2-0.1,0.6,0.2,0.6c-0.5,0.5-0.7,1.4-1.2,1.8
	c0.1,0.5-0.3,0.4-0.2,0.9c-0.4,0.1-0.4,0.7-0.8,0.8c0.1,1-0.8,1.1-0.8,2.1c-0.4,0.2-0.4,0.8-0.9,0.9c0,0.5-0.2,1-0.6,1.2
	c-0.3,0.3-0.3,0.9-0.8,1.1c-0.4,0.7-0.9,1.4-1.5,2c0,0.5-0.4,0.7-0.5,1.2c-0.6,0.1-0.7,0.6-1.2,0.8c0.1,0.7-0.4,0.8-0.5,1.4
	c-0.7,0.4-1.3,0.8-1.8,1.4c-0.6,0.1-1-0.4-1.4,0c-0.1,0.5,0.6,0.3,0.6,0.6c-0.2,0.9-1.2,1.1-1.5,1.8c-0.5-0.1-0.5,0.2-0.6,0.5
	c-0.3,0-0.3-0.2-0.6-0.2c-0.2,0.3-0.6,0.6-0.8,0.9c-0.3-0.1-0.4,0.1-0.6,0.1c-0.7,0.6-1.5,1.2-2.1,1.8c-0.7,0-0.8,0.5-1.4,0.6
	c0,0.4,0.3,0.4,0.2,0.9c-0.7,0.5-1.3,0.9-2,1.4c-0.4,0.7-1.5,0.7-1.8,1.4c-0.9-0.2-1,0.5-1.8,0.5c-0.5,0.2-0.7,0.8-1.2,0.9
	c-0.4-0.1-0.8-0.2-1.2-0.5c-0.8,0.2-0.9,1-1.4,1.5c-0.6,0.1-0.9-0.1-1.4-0.2c-0.7,0.3-1.4,0.5-2.1,0.5c-0.8,0.1-1.1,0.8-2.1,0.6
	c-0.4,0.3-0.8,0.5-1.2,0.8c-0.9,0.1-1.7,0.2-2.6,0.2c-0.4,0.1-0.9,0.3-1.2,0.6c-1.1-0.1-2.1,0.4-3,0c-0.4,0.2-0.9,0.3-1.4,0.3
	c-0.2-0.7,0.7-0.6,0.3-1.1c-0.8-0.1-0.8,0.6-1.4,0.6c-0.5,0.1-0.6-0.2-0.9-0.3c-1,0.6-2.1,0.1-3.2,0.6c-0.7-0.8-2.6-0.2-3.5-0.8
	c-1,0.1-1.7,0.2-2.1-0.5c0-0.4,0.2-0.5,0.3-0.8c0.6-0.1,0.7,0.4,1.4,0.3c0.5,0,0.3-0.6,0.8-0.6c1.4,0.3,2.5-0.7,4.3-0.5
	c0.4-0.1,0.7-0.2,1.1-0.5c0.4-0.1,0.4,0.2,0.8,0.2c0.4-0.1,0.8-0.2,1.2-0.5c2.3,0.1,3.4-1.1,5.6-1.2c1.1-0.6,2.5-0.8,3.2-1.8
	c0.5-0.1,0.5,0.3,1.1,0.2c1.6-0.6,3.2-1.2,4.7-1.8c0.4-0.2,0.6-0.5,0.8-0.9c0.3,0.1,0.5,0,0.8-0.2c1.3-1.3,2.9-2.3,4.6-2.9
	c0.6-0.3,0.6-1.1,1.4-1.2c0.1-0.3,0.3-0.6,0.5-0.9c0.3-0.1,0.6-0.2,0.9-0.3c0.2-0.5,0-0.5,0.2-1.1c0.9-0.2,1.3-1,2.1-1.2
	c0.4-1.2,1.5-1.8,2.3-2.7c-0.1-0.9,0.5-1.1,0.3-2.1c0.7-0.4,1.4-0.9,2-1.5c0.1-0.3-0.1-0.6-0.3-0.8c0.7-0.8,0.7-2.4,1.7-3
	c0.2-0.8,0.6-1.6,1.1-2.3V75c0.3-0.5,0.8-0.8,1.1-1.2c0-1,0.3-2,0.9-2.9c0.4-0.1,1.1,0.2,1.2-0.2c0.3-0.8-1-0.2-0.9-0.8
	c-0.3-1.2,0.9-0.9,1.1-1.5c0.1-0.5-0.6-0.3-0.6-0.6c0.2-0.7,0.4-1.5,0.3-2.3c0.5-0.1,0.3-0.8,0.8-0.9c0.1-0.4,0.6-0.4,0.6-0.9
	c0.2-0.7-0.5-0.5-0.6-0.9c-0.2-1.5,0.3-2.2,0.3-3.5c-0.1-0.5,0.4-0.4,0.5-0.8c-0.5-0.4-0.3-1.5-0.8-2c0.2-0.7,0.1-1.4-0.2-2
	c0-0.5,0.3-0.7,0.5-1.1c-0.3-1,0.3-2.7-0.6-3.7c0-0.9,0.4-0.9,0.2-1.8c-0.3-0.8-0.8-1.4-1.2-2.1c-0.3-0.3,0.1-0.3,0-0.8
	c-0.2-0.4-0.4-0.9-0.8-1.2c0.3-1.6-0.7-2.1-0.8-3.4c-0.2-0.4-0.8-0.4-0.9-0.9c0.6-2.1-0.8-3.2-1.8-4.1v-0.9
	c-0.5-0.9-1.5-1.3-1.8-2.3c-0.3-0.1-0.6-0.3-0.9-0.5c-0.1-0.8,0-1.5,0.5-1.8c-0.3-0.5-0.4,0.4-0.9,0.2c-0.4-0.8-1.4-1-1.2-2.3
	c-0.7-0.4-1.4-0.7-2.1-0.9c-0.2-0.7,0.5-1.1,0.2-1.5c-0.4-0.3-1.2,0.2-1.5-0.3c-0.5-0.4,0.4-0.7,0-1.1c-0.4-1-2.3-0.6-3.2-1.2
	c0-0.7-0.8-0.7-0.6-1.5c-0.1-0.4-0.6-0.4-0.9-0.6c-0.4-0.5-0.7-1-1.4-1.2c-0.6,0.3,0.5,0.7,0,1.1c-1.1,0-1.4-0.8-2.1-1.2
	c0.4-0.8-0.4-1.7-1.1-1.4c-0.2,0.8,0.9,0.3,0.8,1.1c-1.2,0.8-1.9-1.1-3.4-0.9c-0.2-0.3-0.6-0.3-0.8-0.6c-0.8,0-1.3-0.4-2-0.2
	c-0.2-0.5-0.5-0.8-0.9-1.1h-1.2c-2.1-0.6-4.2-1-6.4-1.2c-0.5-0.1-0.3,0.5-0.9,0.3c-0.9-0.3-2-0.4-2.9-0.6c-1.1,0.4-2.8,0.2-4.1,0.5
	c-0.6,0.4-1.5,0.4-2,0.9c-2.1,0-4.1,0.2-5,1.4c-0.5,0-0.9,0-1.4,0.2c-0.5,0.2-0.9,0.6-1.2,1.1c-1.1,0.1-1.3,1.1-2.4,1.1
	c-0.3,0.6-1.2,0.7-1.8,1.1c-0.6,0.3-0.7,1.3-1.4,1.5c-0.5,0.2-1.4-0.2-1.8,0.3c-0.3,0.5,0.1,0.8,0,1.5c-0.4,0.1-0.8,0.2-1.1,0.5
	c-1.5,1.6-3.2,3.1-4.7,4.7c-0.3,1.3-1.2,2-2,2.9c-0.4,0.2,0.3,0.6-0.2,0.8c-0.2,0.6-0.8,0.8-1.1,1.2c0.2,1.1-0.7,1.3-0.8,2.1
	c-0.1,0.6,0.3,0.7,0.2,1.2c-0.2,0.2-0.5,0.2-0.8,0.2c0.4,0.9-0.8,1.2-1.1,1.8c0,1.3-0.9,1.6-0.6,3.2c-0.2,0.3-0.3,0.8-0.6,1.1
	c0.1,1.5-0.5,2.2-0.3,3.8c0,0.5,0.4,0.5,0.3,1.1c0.1,0.6-0.3,0.6-0.3,1.1c-0.2,0.8,0.4,1.5,0,2.1c0.3,0.6,0.1,1.7,0.6,2.1
	c-0.4,0.4,0,0.9,0,1.4c0.2,0.7,0.5,1.5,0.9,2.1v1.2c0.7,2,1.2,4.1,2.6,5.3c-0.1,0.4,0.2,0.4,0.2,0.8c0.6,1.1,1.4,2.1,2.3,2.9
	c0.2,1,0.8,1.8,1.7,2.3c0.1,0.7,0.7,0.9,0.9,1.5c0.8,0.6,1.5,1.3,2.3,2c0.8,0.6,1.6,1.2,2.4,1.7c0,0.4,0.5,0.3,0.5,0.8
	c1,0.5,2,1,2.9,1.7c1.1,0.1,1.4,1,2.7,0.9c1,0.9,2.8,1,4.1,1.7c0.7,0.1,0.9-0.3,1.5-0.2c0.5,0.1,0.9,0.3,1.2,0.6
	c1.8,0,4.3,0.5,5.8-0.2c0.3,0,0.3,0.2,0.6,0.2c0.9-0.5,2.5-0.3,3.4-0.9c1.4,0.3,1.8-0.5,2.9-0.5c0.3-0.1,0.4-0.4,0.5-0.8
	c0.9,0,1.2-0.7,2-0.9c0.2-0.2,0.3-0.4,0.5-0.6c1-0.3,1.8-0.9,2.4-1.7c1.7-0.3,2.2-1.6,3.4-2.4c0.5-0.1,0.4,0.3,0.9,0.2
	c0.7-0.2,0.4-1,0.3-1.5c0.3-0.2,0.5-0.5,0.6-0.9c0.3-0.2,0.5-0.4,0.8-0.6c0-0.5,0.1-1,0.3-1.5c0.3-0.2,0.6-0.4,0.9-0.5
	c-0.4-1.2,0.3-2,0.8-2.7c-0.5-1.6,0.4-3,0.9-4.1c-0.1-0.6-0.4-1.2-0.6-1.8c0.4-1.7-0.5-2.5-0.6-4c-0.1-0.6,0.5-0.5,0.8-0.8
	c0.1-0.9-0.8-0.7-1.4-0.9c-0.1-1.1-1-1.3-0.9-2.6C66,51,66,50.4,65.7,50.1c-0.7,0-0.5,1-0.8,1.4c-0.6,0.2-0.8,0.8-1.1,1.4
	c0.1,0.6,0.2,1.2,1.1,1.1c0.1,0.5-0.1,0.7-0.2,1.1c0.1,0.6,0.9,0.7,1.1,1.2c0.7,0,0.4-0.8,1.1-0.8c0.2,0.7,0.3,1.4,0.3,2.1
	c-0.2,0.2-0.5,0.2-0.8,0.2c0.2,1.4-0.8,1.6-1.1,2.6c0.3,0.1,0.6,0.2,0.9,0.5c0.3-0.3,0.2-1.1,0.9-1.1c0.7,0,0.6,0.7,0.6,1.4
	c-0.1,0.6-0.7,0.8-0.9,1.2c0.1,0.3,0.3,0.5,0.5,0.8c-0.7,1.2-0.6,3-1.7,3.8c0.1,0.5-0.3,0.5-0.2,1.1c-0.2,0.1-0.3,0.3-0.3,0.5
	c-0.7,0.1-0.7,0.8-1.4,0.9c-0.6,0.1-0.2-0.8-0.9-0.6c-0.5,0.6,0.6,0.7,0.6,1.2c-0.1,0.7-0.6,1-1.1,1.4c-0.1,0.5-0.5,0.7-0.6,1.2
	c-0.5,0.1-0.9,0.2-1.4,0.5c-0.1,0.5,0.3,0.5,0.2,1.1c-0.4-0.1-0.3,0.3-0.8,0.2c-0.4,0.3-0.8,0.6-1.1,1.1c-0.6,0.2-1.1,0.5-1.5,0.9
	c-0.5,0.4-1.3,0.3-1.7,0.8c-0.3,0-0.3-0.2-0.6-0.2c-1.4,0.8-3.2,1.1-4.7,1.8c-0.6,0-1.2,0.1-1.8,0.3c-1-0.1-2.8-0.4-3.5,0.2
	c-0.3,0.1-0.5-0.2-0.9-0.3c-1.3-0.2-3.3,0.2-4.1-0.6c-0.5-0.1-0.6,0.2-1.1,0.2c-0.5-0.3-1.1-0.5-1.4-1.1c-0.5,0-0.5,0.5-1.2,0.3
	c-1-0.2-1.4-1.2-2.7-1.1c-0.2-0.4-0.5-0.7-0.9-0.9h-1.2c-0.3-0.3-0.5-0.8-0.6-1.2c-0.6-0.4-1.3-0.7-2-0.9c-0.4-0.8-1.1-1.5-2-1.8
	c-0.7-1.1-1.7-2-2.7-2.7c0-0.4-0.3-0.4-0.2-0.9c-0.9-0.9-1.4-2.4-2.4-3.2c-0.1-0.7-0.5-1.4-1.1-1.8c-0.1-1.3-1-1.9-1.1-3.2
	c-0.4-0.6-0.7-1.2-0.9-1.8c0-0.4,0-0.8,0.2-1.2c0-0.3-0.5-0.1-0.6-0.3c0.3-0.5,0.4-1.1,0.3-1.7c-0.1-0.5-0.3-0.9-0.5-1.4
	c0.1-1.3,0.1-2.5,0-3.8c0.5-1.5-0.3-2.5-0.3-4c0.1-0.7,0.8-0.8,1.1-1.4c-0.2-0.9,0.6-1.2,0.2-1.8c0.1-0.6,0.6-0.8,0.9-1.1
	c0.3-1.8,0.2-3.5,1.5-4.4c-0.2-1,0.6-1,0.5-2c0.4-0.3,0.7-0.8,0.8-1.4c0.7-0.3,0.8-1.2,1.7-1.2v-1.1c0.8-0.5,1.4-1.3,1.7-2.3
	c1.3-0.2,1.4-1.6,2.6-1.8c0.1-0.4,0.4-0.6,0.5-1.1c0.7-0.2,0.9-1,1.8-1.1c0.5-0.7,0.8-1.6,1.8-1.8c0.1-0.3,0.3-0.6,0.5-0.9
	c0.5-0.1,0.3,0.4,0.8,0.3c0.6-0.1,0.7-0.7,1.1-1.1c2.2,0.3,1.9-2,4.1-1.7c0.6-0.2,0.5-1,0.9-1.4c1-0.1,2-0.1,3,0
	c0.6,0,0.4-0.7,0.9-0.8c0.5,0,1.1-0.1,1.4,0.2c0.6-0.2,0.7-0.8,1.7-0.6c0.4,0.2,0.5,0.7,0.5,1.1c0.5-0.1,0.6,0.2,0.9,0.2
	c0.5-0.5-0.4-0.4-0.2-1.1c0.8,0,1.5,0.2,2.1,0.6c0.3-0.3-0.1-0.5,0-1.1c0.8-0.4,1.1-0.2,2,0c0.5,0.1,0.6-0.2,0.9-0.3
	c1.5,0.1,2.8,0.5,4.3,0.6c1.2,0.5,2.4,0.8,3.7,0.9c0.4,0.4,1.1,0.5,1.4,0.9c0.8,0.1,1.5,0.4,2.1,0.8c0.4,0.1,0.4-0.2,0.8-0.2
	c0.5,0,0.4,0.5,0.6,0.8c0.9,0,1.1,0.6,1.7,0.9c0.6,0.3,1.3,0.5,1.5,1.1c0.6,0,0.8,0.4,1.4,0.3c0.5,0.7,1.3,1.2,1.8,2
	c0.5,0,0.5,0.5,1.1,0.5c0.5,0.9,1.6,1.2,2.1,2.1c0.4-0.1,0.4,0.2,0.8,0.2c0.3,0.9,1.3,1.1,1.5,2.1c1.3,0.8,1.8,2.4,3,3.2
	c0.2,0.7,0.6,1.4,1.2,1.8c0,0.5,0.1,0.9,0.5,1.2c-0.1,0.4-0.4,0.6-0.6,0.9c0.2,0.8,0.1,2,0.9,2.3c0.1-0.5-0.5-1.2,0-1.5
	c0.6-0.4,0.8,0.8,1.2,1.1c0.2,0.6,0.8,1.1,0.5,1.8c-0.7,0.1-0.8-0.3-1.1-0.6c-0.3,0.5-0.9,0.7-1.1,1.4c0.1,0.8,0.8,1.1,0.8,2
	c0.3-0.2,0-0.9,0.5-0.9c0.8,0.1,0.5,1.3,1.2,1.5c-0.1-0.4-0.2-0.8-0.2-1.2c0.1-0.6-0.6-0.7-0.2-1.2c1-0.1,0.9,1,1.4,1.5
	c0.1,0.7,0.4,1.5,0.8,2.1c-0.1,2.1,0.9,3.3,1.4,4.9c0,0.5,0,0.9-0.2,1.4c0.6,2.9,0.3,6,0.5,8.8c0,0.5-0.5,0.6-0.5,1.1
	c-0.1,0.5,0.2,0.6,0.2,1.1c0,1.1-0.3,2.2-0.8,3.2c0.1,1.7-0.7,2.5-0.8,4c-0.2,0.6-0.8,0.9-0.6,1.8c-0.1,0.4-0.7,0.5-0.9,0.9
	c-0.1,0.1,0.1,0.4,0,0.6c0,0.1-0.2,0.2-0.3,0.3c-0.1,0.3-0.2,0.6-0.5,0.8c0,0.4,0.3,0.5,0.3,0.9c0,0.5-0.3,0.6-0.5,0.9
	c-0.2,0.2-0.1,0.8-0.6,0.8c-0.1,0.9-0.7,1.1-0.8,2c-0.9,0.5-1,1.9-1.8,2.6c-0.5,1-1.3,1.6-1.8,2.6c-0.6,0-0.6,0.6-1.2,0.5
	c-0.1,0.7-0.8,1-0.8,1.8c-0.2,0.1-0.3,0.3-0.3,0.5c-1.6,1.7-3.4,3.1-5.5,4.3c-0.8,0.6-1.1,1.7-2.6,1.7c-0.9,0.9-2.1,1.5-3,2.3
	c-0.3-0.1-0.6-0.2-0.9-0.3c-1,0.3-1.9,0.9-2.6,1.7c-1.4,0.2-2.9,0.2-3.7,0.9h-0.9c-0.7,0.3-1.1,0.8-1.8,1.1
	c-0.3-0.1-0.6-0.2-0.9-0.3c-1.6,0-2,1.8-3.7,1.2c-1.9,0.8-4.7,0.2-6.9,0.5c-1.3-0.3-2.2-0.7-3.8-0.5c-0.4-0.2-0.7-0.6-0.8-1.1
	c-0.8,0.4-1.7,0.3-2.4-0.2c-0.5,0-0.6,0.5-1.1,0.5c-0.8-0.4-1.9-0.4-2.3-1.2c-1.5,0.6-1.8-1.2-3.5-0.9c-0.1-0.4-0.5-0.4-0.6-0.8
	h-0.9c-0.2-0.7-1.4-0.5-1.8-1.1c-0.6,0.1-0.7-0.2-1.2-0.2c-0.5-0.4-0.9-0.8-1.2-1.4c-0.5,0-0.7-0.4-1.2-0.5
	c-0.1-0.5-0.5-0.7-1.1-0.8c-0.2-0.3-0.4-0.6-0.6-0.9c-0.6-0.1-1-0.4-1.5-0.5c-0.6-0.8-1.6-1.2-2.1-2c-0.8,0.2-0.7-0.5-1.4-0.5
	c-0.3-0.3-0.5-0.7-0.8-1.1c-1.2-0.3-1.6-1.3-2.6-1.8c-0.4-1.2-1.2-2.1-2.3-2.7c-0.4-1.4-1.6-2.2-2.4-3.2c0.1-0.5-0.3-0.5-0.2-1.1
	c-0.3-0.3-1.1,0-1.2-0.5c-0.5-1.9-1.4-3.6-2.7-5c0-0.8-0.2-1.7-0.5-2.4c-0.8-0.6-1-1.7-1.4-2.6c0-0.6,0.1-1.3-0.3-1.5
	c0.1-0.4,0.2-0.9,0.2-1.4c-0.1-0.5-0.6-0.7-0.8-1.1c0-1.3-0.7-1.8-0.5-3.2c-0.6-1.7-0.9-3.5-0.9-5.3C0.2,54,0.5,54,0.5,53.5
	C0.4,52.6-0.1,52,0,50.9c0.1-0.7,0.6-1,0.9-1.5c-0.4-1.1-0.4-2.4,0-3.5c-0.3-0.8-0.8-2.1-0.2-2.9c0.1-0.7,0-1.4-0.2-2.1
	c0.5-0.9,0.8-1.8,1.1-2.7c0.1-0.8-0.9-0.7-0.6-1.7c0-0.5,0.5-0.7,0.9-0.8c0.3-1,0-1.4-0.2-2.3c0-0.3,0.2-0.6,0.5-0.6
	c0,0,0.1,0,0.1,0v-0.9c0.3-0.5,0.8,0.1,1.2-0.5c0-0.7-0.4-1-0.5-1.7C3.9,29.2,4,28,4.6,27.4c0.5-0.2,0.5,0.1,0.9-0.2
	c1.1-0.8,1.2-2.5,1.7-3.8c0.3-0.2,0.7-0.4,1.1-0.6c0-1.7,1.6-1.9,2-3.2c0.3-0.3,0.5,0.1,0.8-0.2v-0.9c0.7-0.6,1.2-1.5,1.4-2.4
	c0.9,0,0.7-1.3,1.7-1.2c0.3-0.3,0.3-0.8,0.6-1.1c0.5,0,0.5-0.4,1.1-0.3c0.8-0.5,1.2-1.5,2.1-1.8c0.2-0.2,0.1-0.7,0.3-0.9
	c0.9-0.3,1.3-1.3,2.6-1.2c1-0.8,1.9-1.7,2.6-2.7c0.5,0.1,0.4-0.3,0.9-0.2c0.9-0.4,1.8-0.9,2.6-1.5h0.8c0.5-0.2,1-0.7,1.1-1.2
	C29,3.9,29,4.3,29.4,4.1c3.2-1.6,6.6-2.9,10.1-3.7h0.9C41.1,0.2,41.8,0.1,42.5,0z M41,1.4c0.3,0.3,1.2,0.2,1.1-0.5
	C41.6,1,41.1,1,41,1.4z M60.7,2.5c0-0.7-0.8-0.6-1.5-0.6c-0.3,0-0.9-0.5-1.1-0.2C58.8,2.3,59.7,2.6,60.7,2.5z M56.8,4.7
	c0-0.5-0.6-0.5-1.1-0.5C55.7,4.9,56.4,4.7,56.8,4.7z M62.5,6.1C62.7,6,63,5.8,63.1,5.5c-0.6-0.1-1.4-0.7-2-0.3
	C61.6,5.4,61.6,6.2,62.5,6.1z M66.9,7c-0.8-0.6-2.3-1.9-3.4-0.8c0.3,0.7,1.8,0.1,1.8,1.1c-0.6,0.4-1.2-0.1-1.5,0.6
	c0.5,0.5,1.3,0.8,2,0.6c0.4,0.5,1.9,1.4,2.6,0.6c-0.4-0.3-1-0.5-1.4-0.9c-0.6-0.1-1.4,0-1.2-0.9c1-0.2,2,0.4,2.7,0
	c0.1,0.2,0.2,0.5,0.6,0.5C69.1,6.8,67.6,6.9,66.9,7L66.9,7z M59,6.7c0.3,0,0.6,0,0.6-0.3c-0.2,0-0.3-0.2-0.5-0.3
	C59.1,6.3,58.9,6.4,59,6.7L59,6.7z M61.1,7.2c0.2,0.2,1,0.3,0.9-0.3c-0.7,0.1-1-0.3-1.8-0.2C60.2,7.2,60.7,7.1,61.1,7.2L61.1,7.2z
	 M62.6,7.5c0.2,0.2,0.5,0.2,0.8,0.2C63.5,7.1,62.6,7,62.6,7.5L62.6,7.5z M72.2,9.3c-0.1-0.6-0.7-1-1.4-0.9C70.9,9.1,71.8,9,72.2,9.3
	L72.2,9.3z M71.5,11c-0.2,0-0.2-0.2-0.3,0c0,0.1,0.1,0.1,0.2,0.1C71.4,11.1,71.5,11,71.5,11L71.5,11z M69.3,16.2
	c-0.2,0-0.4,0-0.5,0.2C69.1,16.3,69.3,16.3,69.3,16.2L69.3,16.2z M58.5,20.3c-0.7,0-1.5,1.1-2,1.2c-0.4,0.8-0.8,1.6-1.1,2.4
	c-0.1,1.1,0.2,2.3,0.9,3.2c0.8,0,1.5,0.2,2.1,0.6c0.3-0.5,1-0.6,0.8-1.7c0.6-0.6,0.7-1.7,1.1-2.6v-2.1
	C59.8,20.8,59.3,20.2,58.5,20.3z M48.2,28.2c0.3-0.8,0.6-1.6,0.8-2.4c-0.4-1.1-0.1-2.1-0.8-3c-0.1,0-0.3,0-0.3-0.2
	c-1-0.1-1.2,0.6-1.8,0.9c-0.6,1.2-1.5,2.1-1.4,4c0.3,0.6,1.5,0.4,1.8,1.1c-0.7,0.2-1.4,0.6-2,1.1c0.2,0.7,0,0.8-0.2,1.4
	c0.2,1.3-0.7,2.1-0.5,2.9c0.9,0.2,1.8-0.2,2.7,0.2c0.6-0.8,1-1.7,1.2-2.6c-0.1-0.7,0-1.4,0.1-2.1c-0.2-0.3-0.7-0.5-0.9-0.8
	C47.6,28.6,47.7,28.2,48.2,28.2z M64.2,36c0.4-0.8,0.9-1.5,1.4-2.3v-1.2c0.3-0.2,0.6-0.6,0.9-0.8c0.2-1.1,0.7-2.2,1.5-3
	c0.2-1.7,0.4-3.5-1.4-3.7c-0.7,0.1-1.4,0.3-2,0.8c-0.8,1.6-1.3,3.4-1.5,5.2c0.3,0.2,0.4,0.6,0.8,0.8c0.5,0.1,1,0.1,1.1,0.6
	c-0.3,0.7-1.4,0.1-2,0.2c-0.6,0.6-0.6,1.8-0.9,2.7c-0.1,0.5,0,1,0.3,1.4c-0.7,0.5,0,1.2,0.3,1.5C63.4,37.6,64,36.9,64.2,36L64.2,36z
	 M55.2,28.4c-0.6,0.9-0.8,1.9-0.8,2.9c-0.4,0.5-0.8,1.2-0.9,1.8c0,0.4,0.3,0.6,0.3,1.1c-0.5,0.3-0.9,0.7-1.4,1.1
	c-0.7,1.5-1,3.1-0.6,4.7c1,0.3,2,0.3,3,0.2c0.6-1.3,1.1-2.7,1.5-4.1c-0.2-0.7-1.4-0.5-1.8-1.1c-0.1-0.5,0.9,0,0.8-0.6
	c-0.4,0-1,0.1-1.1-0.3c0.4-1,1.3,0,2.1-0.2c0.5-0.4,1-0.7,1.2-1.4c0-1.2,0.2-2.4,0.8-3.5C57.4,28.4,56.3,28.1,55.2,28.4L55.2,28.4z
	 M37.6,29.1c0.5,0.1,0.6-0.2,0.8-0.5C38,28.6,37.6,28.6,37.6,29.1L37.6,29.1z M44.3,34.6c0.1,0.5,1,0.1,1.2,0.5
	c-0.4,0.7-1.1,0.3-1.8,0.2c-1.1,0.3-0.8,2-1.1,3.2c0.3,0.9,0.5,1.9,0.6,2.9c1.9,0.1,2.5-1.2,3.7-1.8c-0.1-0.3,0.1-0.6,0.3-0.8
	c0.2-0.6-0.5-0.5-0.3-1.1c0.3-0.6,0.4-1.2,0.3-1.8c-0.2-0.7-0.9-0.8-0.9-1.5C45.7,34.5,44.5,33.9,44.3,34.6L44.3,34.6z M68.6,46.2
	c0.6-1.5,2.1-2.1,2.3-4.1c0.6,0.2,0.4-0.4,0.9-0.3c0.2-0.6,0.7-1,1.2-1.2c0.3-0.9,1.1-1.4,1.2-2.4c-0.2-0.6-0.2-1.2-0.2-1.8
	c-0.7-1.5-2.3-0.6-3.2,0.2C70.3,38,68.7,39,69,41c-0.3,0.2-0.9,0.2-1.1,0.5c-0.3,1.4-1.2,2.1-1.7,3.4c-0.5,0.4-1,0.8-1.5,1.1
	c-0.4,1.2-0.6,2.4-0.5,3.7c0.9,0.2,0.6-0.8,0.9-1.2c0.5-0.1,0.9-0.3,1.4-0.5c0.3-0.4,0.2-1.2,0.6-1.5C67.8,46.4,67.9,46.1,68.6,46.2
	z M29.6,35.7c-0.1,0.6,0.9,0.3,0.8,0C30,35.4,29.9,35.7,29.6,35.7z M25.6,36.9c0-0.2,0.2-0.3,0.2-0.6h-0.5
	C25.3,36.6,25.3,36.9,25.6,36.9z M24.2,38.6c0.3,0,0.6-0.2,0.6-0.5c0,0,0-0.1,0-0.1c-0.2,0-0.2-0.2-0.5-0.2
	C24.2,38,24.2,38.3,24.2,38.6z M21.5,38.7c0.2,0.1,0.3,0.2,0.5,0c0-0.2,0-0.4-0.3-0.3C21.6,38.6,21.5,38.6,21.5,38.7z M27.9,40.1
	c0.1-0.1,0.7-0.9,0-0.9C28.1,39.6,27.4,39.9,27.9,40.1L27.9,40.1z M59.6,40.5c0.2,0.5,0.8,0.5,0.8,1.2c-0.1,0.7-1.2,0.7-0.6,1.7
	c0.8-0.1,0.8-1,1.1-1.7c1.1,0.2,1.2-0.8,1.5-1.4C62,39.2,59.6,38.9,59.6,40.5L59.6,40.5z M20.6,41.9c0.5,0.2,0.4-0.8,0.2-0.8
	C20.8,41.5,20.5,41.5,20.6,41.9z M20.3,43.4c0-0.4,0.6-1.1,0.3-1.4C20.2,42.3,19.5,43.1,20.3,43.4z M46.3,49.7V50
	c0.3,0.7,1.1,0.8,1.1,1.8c0.2,0.2,0.7,0.1,0.8,0.5c0,0.4,0,0.7,0.3,0.8c0.5-0.3,0.6-1.5,1.4-0.9c-0.2,0.4-0.5,0.8-0.9,1.1
	c-0.1,0.4-0.1,0.9-0.6,0.9c-0.5,0.1-0.5-0.5-0.5-0.9c-0.6-0.5-0.6-1.5-1.7-1.5c0,0.8,0,1.5,0.2,2.3c0.7,0.2,0.3-0.7,1.1-0.5
	c0.1,0.4-0.3,0.3-0.2,0.8c0.5,0,1,0.9,0.8,1.1c-0.6-0.2-1.2-0.4-1.8-0.6c-0.1-0.5-0.2-1-0.2-1.5c-0.2-0.3-0.7-0.8-0.3-1.2
	c-0.6-0.8-1.1-1.6-1.5-2.4c-0.5,0.1-0.7-0.1-1.1-0.2c-0.4,0.2-0.9,0.3-1.4,0.3c-0.1,0.2-0.3,0.3-0.5,0.3c-0.2,0.4-0.5,0.7-0.9,0.9
	c-0.1,0.4-0.3,0.7-0.6,0.9c0.1,0.4-0.1,0.8-0.5,0.9c0,0.6,0.9,0.8,0.5,1.4c-0.9,0.1-0.8-0.8-1.8-0.6c-0.6,0.2-0.8,0.6-1.1,1.1
	c-0.8,0.3-1.1,1.2-1.8,1.5c-0.5-0.3,0.2-1.1-0.2-1.2c-0.1,0.5-1,0.2-1.5,0.3c-0.5-0.3-1-0.7-1.4-1.2c0.3-0.2,0.3-0.5,0.2-0.7
	c0-0.1-0.1-0.1-0.2-0.2c-1-0.2-0.6,0.9-0.8,1.2c-0.4,0-0.5,0.2-0.8,0.3c-0.1-0.4-0.6-0.4-0.6-0.9c0.1-0.4,0.2-0.9,0.2-1.4
	c0-0.3-0.3-0.4-0.3-0.8s0.4-0.2,0.3-0.6c-0.7-0.1-0.4-1-0.3-1.5c-0.4-0.1-0.8-0.3-1.1-0.6c-0.1-0.6,0.3-0.7,0.2-1.4
	c-0.7-0.2-1.4-0.4-1.4-1.4c0.6-0.2,0.6,0.3,1.1,0.3c0-0.8-0.8-0.9-1.2-1.2c-0.5-0.5-0.8-1.2-1.7-1.4c-0.9,0.4-2.4,0.1-2.3,1.5
	c0.5,0.3,0.5,0.2,1.2,0.2c0.3,0.5,0.5,1.1,0.5,1.7c-0.5,0.4-0.8,0.2-1.4,0c0.3,0.6,0.5,1.3,0.8,2c0.5,0.3,0.9,0.7,1.4,1.1
	c0.7,1.2,2,2,2.7,3.2c0.8,1.2,1.6,2.6,2.1,4c0.1,1,0.4,2.1,1.1,2.9v1.1c1.2,1.3,2.3,2.8,3.5,4.1c-0.1,0.5,0.4,0.3,0.3,0.8
	c1.3,1.3,3,2.2,4.4,3.3h3c0.4-0.3,1-0.5,1.5-0.6c0.5-0.1,0.3,0.4,0.8,0.3c0.3-0.5,1.1-0.5,1.5-0.9c0.3-0.4,0-1.2,0.6-1.2
	c-0.1,0.6-0.2,1.2-0.2,1.8c0.4,0.1,0.4-0.2,0.8-0.2c0.2,0.6,0.5,1.2,0.9,1.7c0.9,0.8,2.1,0.7,3.4,1.1c0.3-0.5,1.5-0.2,2.3-0.3
	c1-0.7,1.9-1.4,2.9-2.1c0.2-0.6,0.7-1.2,1.2-1.5c0.4-1.1,0.9-2.3,1.4-3.4v-0.9c0.2-0.2,0.2-0.6,0.5-0.8c0.1-0.4-0.2-0.4-0.2-0.8
	c0.7-1.1,0.7-2.7,1.4-3.8c-0.2-0.4-0.3-0.9-0.3-1.4c0.2-0.2,0.7-0.1,0.9-0.3c0-0.7,0.1-1.4,0.5-2c0.1-0.5-0.5-0.3-0.3-0.9
	c0.3-0.4,1-0.4,0.9-1.2c-1-0.7-1.7-2.5-3.4-1.5c-0.2-0.3,0.1-0.5-0.2-0.9c-0.4,0-0.3-0.5-0.3-0.9c-0.9-0.5-1.6-1.3-2-2.3
	c-0.6,0.3-1.3-0.5-2.1,0c-0.3-0.4-0.4-0.8-0.5-1.2c-0.7-0.5-1.5-1-2.3-1.4h-1.8c-0.1,0.5,0.2,1.4-0.3,1.5c-0.5,0.1-0.9-0.3-0.9-0.7
	c0,0,0,0,0,0c-0.2-0.4,0.9-0.7,0.2-0.8h-1.1c-0.2-0.1-0.5-0.6-0.8-0.8c-0.5-0.2-1.3,0-1.8-0.3c-0.1,0-0.2-0.4-0.3-0.5
	c-0.8,0.2-1.6,0.1-2.3-0.2c-0.7,1.2-1.9,2.6-1.4,4.6C43.6,47.7,43.9,49.8,46.3,49.7z M85.2,45.1c0-0.3,0-0.6-0.3-0.6
	C84.9,44.8,84.7,45.3,85.2,45.1z M17.7,86c-0.3,0.7,0.8,0.8,1.1,0.5C18.5,86.1,18.2,85.7,17.7,86L17.7,86z M50.1,98.1
	c0.5,0.2,1.1,0.5,1.2-0.3C50.9,97.9,50.4,97.9,50.1,98.1L50.1,98.1z"/>
<path class="st2" d="M71.2,11c0.1-0.2,0.1,0,0.3,0c0,0.1-0.1,0.1-0.2,0.1C71.2,11.1,71.2,11,71.2,11z"/>
<path class="st1" d="M82.9,40.9c0.4,0,0.5,0.2,0.5,0.6h-0.6C82.7,41.1,82.8,41.1,82.9,40.9z"/>
<path class="st1" d="M49.5,46.5c0.7,0.3,0.8,1.2,1.1,2c-0.5,0.1-0.3-0.5-0.5-0.8c-0.3,0.1-0.5,0-0.8-0.2
	C49.3,47.1,49.7,47,49.5,46.5z"/>
<path class="st1" d="M52.4,46.8c0.2,0.5-0.2,0.4-0.3,0.6c-0.2-0.1-0.3-0.3-0.3-0.5C52,46.8,52.2,46.8,52.4,46.8z"/>
<path class="st1" d="M56.8,46.9c0.2,0.4,0.1,0.8-0.3,1C56.4,48,56.2,48,56.1,48C55.7,47.5,56.2,46.9,56.8,46.9z"/>
<path class="st1" d="M46.3,49.7c-0.2-0.2-0.3-1.2,0.3-1.1C46.9,48.9,47.2,49.9,46.3,49.7z"/>
<path class="st1" d="M50.4,49.5c-0.8,0.2-0.9-0.4-1.4-0.6c0.1-0.3,0.9-0.1,1.2-0.2C50.2,49.1,50.6,49.1,50.4,49.5z"/>
<path class="st1" d="M56.5,48.8c0.3,0.1,0.5,0.3,0.5,0.8h-0.6C56.3,49.3,56.4,49,56.5,48.8z"/>
<path class="st1" d="M55,49.2c0.3,0.5-0.4,1.2-0.2,2.1c0.5,0,0.6-0.3,1.2-0.2c0,0.9-1.1,0.7-1.7,1.1c-0.9,0-1.8-0.2-2.6-0.6
	c-0.6-0.2,0,0.7-0.6,0.5c0.1-1.1-0.8-1.3-0.2-2.1c0.6,0.1,0.7,0.8,0.9,1.2c0.4,0.2,0.8,0.4,1.1,0.8C54.4,51.8,53.5,49.3,55,49.2z"/>
<path class="st1" d="M50.4,49.5c0.2,0,0.3,0,0.5,0.2c0,0.2-0.3,0.1-0.5,0V49.5z"/>
<path class="st1" d="M49.2,50.5c0,0.4-0.2,0.5-0.6,0.5C48.7,50.7,48.8,50.4,49.2,50.5z"/>
<path class="st1" d="M52.9,52.6c0.3-0.1,0.3,0.1,0.3,0.3c0,0.4,0.6,0.2,0.8,0.5v0.8h1.5c-0.1,0.7-0.2,1.4-0.2,2.1
	c-0.5,0.2-1-0.1-1.5-0.3v-1.5C53.2,54,52.8,53.3,52.9,52.6z"/>
<path class="st1" d="M55.3,52.6v0.9c-0.2,0-0.3,0-0.3,0.2C54.4,53.6,54.4,52.3,55.3,52.6z"/>
<path class="st1" d="M51.5,53.5c0.5-0.1,0.5,0.3,0.5,0.8C51.7,54.1,51.4,54,51.5,53.5z"/>
<path class="st1" d="M50.1,54.1h0.5c0.4,0.6-0.1,1.4-0.2,2c-0.8,0.3-1.3-0.2-1.5-0.9C49.8,55.4,50.3,55.2,50.1,54.1z"/>
<path class="st1" d="M58.1,54.3c-0.2,0.9,0.7,0.8,0.8,1.5c-1-0.4-1.7,0.2-2.4,0C56.7,55,57.3,54.5,58.1,54.3z"/>
<path class="st1" d="M51.4,55.5c-0.1,0.2-0.3,0.3-0.5,0.3C50.8,55.5,51.1,55.5,51.4,55.5z"/>
<path class="st1" d="M45.3,55.8h0.3v0.3h-0.3V55.8z"/>
<path class="st1" d="M61.1,56.4c-0.3,0.4-1.3,0.1-1.2-0.5C60.3,55.6,60.6,56.3,61.1,56.4z"/>
<path class="st1" d="M48.3,57.6c0.2,0,0.3,0,0.3,0.2c0.1,0.4,0,0.9-0.3,1.2c0.3,0.5,0.5,1.1,0.3,1.7c-0.3,0.1-0.6,0.2-0.9,0.3
	c-0.1-0.5-0.3-1-0.6-1.4c0-0.6,0-1.2-0.2-1.8c0.4,0.1,0.2,0.8,0.8,0.8C48.3,58.7,48,57.8,48.3,57.6z"/>
<path class="st1" d="M59.9,58.5c0.2,0,0.3,0.1,0.5,0.2C60.4,59,59.7,58.9,59.9,58.5z"/>
<path class="st1" d="M50.7,58.8h0.5c0,0.2-0.1,0.3-0.2,0.5h-0.3L50.7,58.8z"/>
<path class="st1" d="M48.9,60.8c0.3-0.1,0.4,0.1,0.6,0.2c0,0.5-0.2,0.7-0.6,0.8C48.6,61.4,49,61.3,48.9,60.8z"/>
<path class="st1" d="M46.8,66.6c-0.2,0.6-0.5,1.2-1.2,1.2C45.9,67.3,46,66.7,46.8,66.6z"/>
</svg>
