<?xml version="1.0" encoding="utf-8"?>
<!-- Generator: Adobe Illustrator 22.1.0, SVG Export Plug-In . SVG Version: 6.00 Build 0)  -->
<svg version="1.1" id="Layer_1" xmlns="http://www.w3.org/2000/svg" xmlns:xlink="http://www.w3.org/1999/xlink" x="0px" y="0px"
	 viewBox="0 0 450 450" style="enable-background:new 0 0 450 450;" xml:space="preserve">
<style type="text/css">
	.st0{fill:#FFFFFF;}
	.st1{fill:#FF0000;}
	.st2{fill:none;stroke:#000000;stroke-width:18;stroke-linecap:round;stroke-miterlimit:10;}
	.st3{fill:none;stroke:#FF0000;stroke-width:18;stroke-miterlimit:10;}
</style>
<g>
	<path class="st0" d="M225,441c-57.7,0-111.9-22.5-152.7-63.3C31.5,336.9,9,282.7,9,225c0-57.7,22.5-111.9,63.3-152.7
		C113.1,31.5,167.3,9,225,9c57.7,0,111.9,22.5,152.7,63.3c40.8,40.8,63.3,95,63.3,152.7c0,57.7-22.5,111.9-63.3,152.7
		C336.9,418.5,282.7,441,225,441z"/>
	<path class="st1" d="M225,18c28,0,55.1,5.5,80.6,16.3c24.6,10.4,46.8,25.4,65.8,44.4s33.9,41.2,44.4,65.8
		C426.5,169.9,432,197,432,225s-5.5,55.1-16.3,80.6c-10.4,24.6-25.4,46.8-44.4,65.8s-41.2,33.9-65.8,44.4
		C280.1,426.5,253,432,225,432s-55.1-5.5-80.6-16.3c-24.6-10.4-46.8-25.4-65.8-44.4s-33.9-41.2-44.4-65.8C23.5,280.1,18,253,18,225
		s5.5-55.1,16.3-80.6c10.4-24.6,25.4-46.8,44.4-65.8s41.2-33.9,65.8-44.4C169.9,23.5,197,18,225,18 M225,0C100.7,0,0,100.7,0,225
		s100.7,225,225,225s225-100.7,225-225S349.3,0,225,0L225,0z"/>
</g>
<g>
	<path class="st2" d="M274.2,359.3c0,0-47,1.6-65.9-32.8c-4.5-8.2-6.6-17.5-6.6-26.8l0-19.5c0-8.9,5.9-16.7,14.4-19.1
		c17.1-4.8,44.5-16.1,54.3-40.9c2.1-5.2,3-10.8,3-16.3v-97.4c0-9.1-7.4-16.5-16.5-16.5h-73.3h-73.3c-9.1,0-16.5,7.4-16.5,16.5
		l0,97.4c0,5.6,0.9,11.2,3,16.3c9.8,24.8,37.2,36.1,54.3,40.9c8.6,2.4,14.4,10.2,14.4,19.1l0,19.5c0,9.3-2.1,18.6-6.6,26.8
		C140,360.9,93,359.3,93,359.3"/>
	<path class="st2" d="M357.7,90.2v80.3c0,8.2-3,16-8.6,22c-3.3,3.5-7.7,7.6-13.7,12c-4.3,3.2-5.9,8.2-5.9,13.5v141.1"/>
	<line class="st2" x1="301.7" y1="90" x2="301.7" y2="148.3"/>
	<line class="st2" x1="329.7" y1="90" x2="329.7" y2="148.3"/>
</g>
<g>
	<line class="st3" x1="377.2" y1="377.8" x2="72.2" y2="72.8"/>
</g>
</svg>
