<?xml version="1.0" standalone="no"?>
<!DOCTYPE svg PUBLIC "-//W3C//DTD SVG 20010904//EN"
 "http://www.w3.org/TR/2001/REC-SVG-20010904/DTD/svg10.dtd">
<svg version="1.0" xmlns="http://www.w3.org/2000/svg"
 width="580.000000pt" height="580.000000pt" viewBox="0 0 580.000000 580.000000"
 preserveAspectRatio="xMidYMid meet">
<metadata>
Created by potrace 1.11, written by Peter Selinger 2001-2013
</metadata>
<g transform="translate(0.000000,580.000000) scale(0.100000,-0.100000)"
fill="#000000" stroke="none">
<path d="M2528 5795 c-2 -2 -48 -6 -103 -9 -119 -8 -201 -15 -235 -22 -14 -2
-44 -7 -66 -10 -48 -6 -49 -6 -170 -32 -107 -24 -220 -60 -324 -104 -64 -28
-100 -46 -190 -97 -17 -10 -20 -110 -6 -196 11 -64 9 -107 -7 -132 -6 -9 -15
-10 -35 -2 -26 11 -42 15 -92 24 -14 2 -47 9 -74 14 -26 5 -80 8 -120 6 -223
-8 -351 -224 -275 -461 13 -38 25 -71 29 -74 3 -3 14 -22 25 -43 20 -39 158
-187 174 -187 5 0 20 -9 34 -20 l26 -21 -86 -142 c-82 -134 -193 -310 -210
-332 -22 -28 -63 -96 -63 -104 0 -5 -3 -11 -7 -13 -9 -3 -63 -84 -63 -93 0 -2
-16 -29 -35 -59 -19 -30 -35 -60 -35 -66 0 -5 -4 -10 -9 -10 -5 0 -14 -12 -20
-27 -6 -16 -32 -69 -59 -118 -63 -118 -168 -369 -165 -395 1 -3 -3 -13 -9 -23
-5 -10 -11 -26 -13 -35 -2 -9 -10 -44 -18 -77 -15 -58 -24 -107 -34 -184 -18
-138 -6 -369 28 -501 45 -178 135 -382 243 -550 36 -58 72 -114 79 -125 7 -11
14 -22 17 -25 3 -3 25 -32 49 -65 25 -33 47 -62 51 -65 3 -3 17 -21 30 -40 14
-19 32 -42 40 -50 8 -9 38 -42 65 -75 47 -56 116 -133 160 -181 11 -11 54 -58
95 -104 91 -101 356 -368 426 -430 46 -40 80 -69 158 -132 11 -10 26 -22 32
-27 85 -71 378 -239 489 -281 202 -75 343 -100 535 -95 80 2 156 6 170 9 217
46 346 102 658 287 153 91 418 261 572 367 224 155 259 181 439 330 67 56 291
280 336 337 22 28 43 52 46 55 21 18 155 213 206 300 170 288 298 684 310 955
9 212 -27 357 -153 623 -24 51 -44 95 -44 96 0 7 -137 250 -180 321 -71 116
-153 240 -162 243 -4 2 -8 8 -8 12 0 5 -33 55 -72 111 -40 55 -77 108 -83 117
-5 10 -13 19 -17 22 -3 3 -28 37 -54 75 -26 39 -54 76 -62 84 -7 8 -21 26 -30
40 -20 31 -24 36 -57 78 -25 31 -25 32 -5 38 12 4 58 43 104 88 59 59 91 100
113 147 104 216 36 419 -162 486 -42 14 -141 9 -241 -11 -58 -12 -106 -19
-108 -16 -4 9 0 101 8 145 3 21 18 72 31 113 14 42 24 77 23 78 -6 5 -163 90
-168 91 -3 0 -22 8 -42 17 -21 10 -39 17 -42 17 -3 0 -17 5 -33 12 -15 6 -32
12 -38 14 -5 1 -44 12 -85 24 -41 12 -84 23 -95 25 -11 2 -33 7 -50 10 -16 3
-43 8 -60 10 -16 2 -39 6 -50 8 -11 3 -47 8 -81 12 -33 3 -83 9 -110 12 -52 5
-980 13 -986 8z m1822 -880 c0 -6 -56 -35 -67 -35 -4 1 8 9 27 20 39 22 40 22
40 15z m-72 -50 c-7 -8 -58 -13 -62 -7 -2 4 12 8 31 9 19 1 34 0 31 -2z m-658
-509 c36 -33 38 -36 23 -52 -9 -9 -17 -30 -18 -48 -1 -17 -14 -60 -28 -96 -14
-36 -27 -81 -28 -100 -2 -19 -7 -41 -12 -47 -5 -7 -7 -13 -3 -13 4 0 -1 -14
-9 -31 -16 -30 -17 -30 -73 -24 -73 9 -123 34 -141 71 -8 16 -15 63 -16 108
-2 65 1 82 16 97 10 10 25 33 33 51 20 46 70 97 100 102 14 2 33 9 43 15 29
17 71 5 113 -33z m-743 -130 c32 -32 37 -94 11 -133 -23 -36 -23 -48 3 -84 28
-39 19 -76 -31 -124 -37 -36 -53 -75 -31 -75 5 0 16 -7 25 -15 17 -17 11 -45
-9 -45 -18 0 -25 -23 -25 -83 0 -51 -19 -87 -47 -87 -12 0 -18 -19 -13 -49 1
-7 21 -41 46 -74 42 -59 53 -79 37 -75 -5 1 -19 -4 -31 -11 -27 -14 -27 -47
-1 -109 12 -28 11 -36 -4 -65 -10 -17 -40 -45 -66 -62 -27 -16 -57 -42 -68
-57 -21 -32 -32 -34 -79 -12 -42 20 -56 43 -65 109 -4 28 -10 65 -14 84 -4 22
0 54 12 92 l18 59 47 -2 c34 -1 54 4 68 17 27 24 26 29 -14 65 -26 25 -33 37
-30 61 2 17 7 36 11 42 12 20 15 39 14 108 l-1 67 45 28 c24 16 47 35 50 43 5
14 -8 35 -23 37 -4 0 -21 4 -39 8 -34 8 -43 27 -31 66 4 14 21 69 37 123 51
169 125 226 198 153z m1172 -130 c8 -5 11 -22 9 -44 -3 -21 3 -49 13 -69 19
-37 19 -41 -10 -124 -11 -31 -18 -66 -16 -78 3 -15 -3 -25 -18 -32 -26 -12
-47 -51 -111 -199 -58 -136 -103 -227 -134 -269 l-25 -34 -15 28 c-16 32 -19
235 -3 277 12 31 51 70 66 65 45 -17 54 -17 64 2 10 17 5 22 -34 41 -25 12
-46 29 -47 38 0 10 -2 24 -3 32 -1 8 3 20 8 27 5 7 6 30 2 52 -4 24 -2 41 4
46 6 3 11 25 11 48 0 113 160 242 239 193z m-636 -235 c15 -6 27 -15 27 -21 0
-6 4 -9 10 -5 5 3 17 -6 26 -20 19 -29 13 -78 -12 -106 -15 -17 -15 -22 -1
-56 14 -36 14 -40 -7 -78 -23 -40 -23 -40 -85 -41 -73 -1 -100 -18 -82 -53 7
-12 27 -28 46 -36 41 -17 43 -33 15 -105 -11 -27 -17 -50 -15 -50 3 0 1 -9 -5
-20 -6 -11 -13 -33 -15 -48 -11 -75 -30 -104 -73 -115 -46 -11 -132 35 -158
84 -12 23 -11 31 7 65 11 22 21 59 23 84 1 25 15 72 31 105 25 50 30 73 30
135 0 50 6 85 17 105 11 20 13 36 7 46 -5 11 -2 29 11 55 11 21 20 48 20 60 0
16 7 24 23 26 38 7 131 1 160 -11z m1030 -461 c27 -21 43 -72 39 -121 -3 -42
-30 -97 -51 -104 -12 -3 -27 -25 -37 -53 -18 -48 -43 -86 -52 -77 -3 2 -13 0
-24 -6 -14 -8 -19 -18 -15 -34 3 -18 -1 -25 -17 -27 -13 -2 -22 -13 -26 -33
-14 -66 -81 -148 -174 -212 -33 -23 -48 -42 -53 -63 -4 -24 -21 -41 -81 -80
-43 -28 -80 -46 -85 -41 -5 5 -1 25 8 47 9 22 15 55 14 76 -3 29 6 50 43 106
26 39 49 81 50 94 2 13 15 35 29 50 14 15 31 45 38 68 7 24 22 47 39 57 15 9
29 18 31 20 3 2 4 21 3 43 -2 30 1 40 13 40 11 0 15 11 15 44 0 36 5 47 25 60
14 9 25 23 25 30 0 27 75 96 125 116 64 25 86 25 118 0z m-723 -220 c17 -12
28 -26 25 -31 -3 -5 -2 -17 3 -26 6 -10 6 -28 1 -40 -8 -22 -62 -57 -72 -47
-3 3 -3 -3 -1 -13 7 -25 -74 -113 -104 -113 -25 0 -31 34 -9 47 8 4 17 22 20
38 3 17 9 38 12 48 5 12 2 17 -9 17 -9 0 -21 10 -27 23 -13 29 11 94 38 103
10 3 25 9 33 13 22 12 56 5 90 -19z m-970 -209 c36 -22 88 -44 117 -51 43 -10
61 -21 99 -63 54 -59 76 -68 71 -29 -2 15 1 37 6 50 10 20 16 22 51 17 79 -12
133 -35 144 -60 7 -14 20 -25 29 -26 40 -1 59 -9 75 -30 10 -11 16 -25 13 -30
-3 -4 3 -6 13 -4 31 6 81 -22 93 -52 25 -61 32 -71 79 -98 44 -26 70 -58 70
-88 0 -7 17 -12 44 -13 53 -2 110 -34 137 -78 22 -36 24 -46 7 -46 -6 0 -19
-7 -29 -16 -17 -15 -17 -20 -4 -51 16 -39 12 -55 -13 -51 -20 4 -20 -11 -3
-72 12 -41 11 -45 -8 -61 -16 -13 -29 -15 -56 -9 -19 4 -35 6 -35 4 0 -11 -87
41 -105 62 -26 31 -46 30 -73 -1 -21 -24 -38 -30 -71 -25 -17 2 -41 25 -41 39
0 16 -11 14 -32 -6 -35 -32 -16 -73 35 -73 15 0 53 12 84 26 l55 27 87 -45
c100 -52 127 -86 94 -120 -15 -15 -25 -17 -44 -10 -28 11 -49 5 -49 -13 0 -8
15 -12 45 -12 25 0 48 -2 51 -5 3 -4 -2 -28 -11 -54 -9 -26 -16 -75 -15 -108
2 -103 1 -107 -31 -147 -31 -40 -37 -61 -24 -91 4 -11 3 -18 -4 -18 -6 0 -11
-11 -11 -24 0 -26 -34 -72 -87 -119 -18 -16 -33 -35 -33 -43 0 -7 -13 -20 -29
-28 -16 -9 -31 -22 -34 -30 -6 -14 -97 -82 -97 -72 0 14 -44 -13 -46 -28 -1
-10 -4 -19 -6 -21 -2 -1 -45 -5 -97 -9 -51 -3 -97 -9 -102 -12 -10 -6 -69 23
-69 34 0 4 -29 38 -65 76 -35 38 -62 72 -60 76 8 14 -37 89 -58 96 -32 10 -58
-27 -47 -67 5 -17 14 -37 20 -45 20 -23 2 -33 -54 -31 -39 1 -59 -3 -73 -16
-24 -21 -44 -22 -91 0 -26 11 -61 16 -117 14 -109 -2 -142 16 -285 160 -213
216 -238 247 -295 374 -19 44 -40 90 -46 101 -6 12 -13 37 -14 55 -2 19 -5 35
-6 37 -2 3 -6 20 -8 33 0 6 -18 27 -38 47 -21 20 -47 50 -59 67 -25 38 -52
113 -48 138 2 18 -37 60 -198 213 -75 71 -111 125 -94 141 2 3 24 5 48 6 38 2
43 5 46 28 2 20 -5 33 -30 53 -56 45 -68 59 -68 81 0 38 35 60 95 58 68 -1
119 -26 175 -84 48 -50 60 -88 35 -109 -20 -17 -19 -25 8 -52 12 -13 39 -51
60 -84 20 -34 44 -67 52 -74 21 -18 19 -75 -7 -147 -20 -54 -21 -64 -8 -87 7
-14 19 -26 25 -26 18 0 52 33 56 55 3 14 12 20 29 20 24 0 25 -2 22 -52 -2
-49 -1 -53 20 -55 13 0 28 -2 33 -3 6 -2 16 -3 23 -4 7 0 28 -17 48 -36 53
-53 74 -54 107 -5 15 23 27 45 27 48 0 17 90 102 107 102 11 0 35 -13 53 -30
55 -49 77 -39 54 25 -32 92 -12 186 48 223 47 29 152 46 176 29 6 -5 12 -6 12
-2 0 4 24 -14 53 -42 28 -27 76 -62 105 -78 46 -25 51 -30 38 -43 -8 -8 -27
-16 -42 -18 -38 -4 -46 -23 -23 -56 18 -24 48 -48 62 -48 3 0 7 10 10 23 4 12
16 27 29 32 19 8 24 19 26 58 2 26 -1 47 -6 47 -19 0 -62 50 -62 72 0 23 -56
88 -76 88 -6 0 -14 -7 -18 -15 -3 -8 -14 -15 -23 -15 -21 0 -85 59 -110 100
-12 21 -23 27 -47 26 -86 -3 -80 176 9 279 14 17 25 34 25 38 0 4 19 16 43 26
49 21 61 18 157 -38z"/>
<path d="M3018 1183 c7 -3 16 -2 19 1 4 3 -2 6 -13 5 -11 0 -14 -3 -6 -6z"/>
</g>
</svg>
