<?xml version="1.0" standalone="no"?>
<!DOCTYPE svg PUBLIC "-//W3C//DTD SVG 20010904//EN"
 "http://www.w3.org/TR/2001/REC-SVG-20010904/DTD/svg10.dtd">
<svg version="1.0" xmlns="http://www.w3.org/2000/svg"
 width="848.000000pt" height="848.000000pt" viewBox="0 0 848.000000 848.000000"
 preserveAspectRatio="xMidYMid meet">
<metadata>
Created by potrace 1.11, written by Peter Selinger 2001-2013
</metadata>
<g transform="translate(0.000000,848.000000) scale(0.100000,-0.100000)"
fill="#000000" stroke="none">
<path d="M4200 8447 c-23 -26 -39 -34 -70 -35 -23 -2 -52 -7 -65 -12 -17 -6
-33 -5 -54 6 -19 9 -66 16 -125 18 -53 1 -99 5 -102 9 -4 3 -25 -9 -47 -28
-29 -25 -44 -32 -51 -25 -11 11 -13 16 -15 50 -1 14 -8 20 -25 20 -14 0 -28
-5 -31 -10 -3 -6 -20 -17 -37 -26 -16 -9 -27 -11 -24 -6 3 6 2 22 -4 36 -11
29 -5 29 -155 7 -82 -12 -165 -27 -199 -36 -28 -7 -129 -35 -144 -40 -7 -3
-14 -5 -17 -5 -3 0 -22 -7 -43 -16 -20 -9 -46 -17 -57 -20 -17 -3 -164 -59
-220 -84 -53 -23 -145 -65 -189 -86 -28 -13 -58 -22 -67 -19 -12 4 -20 -1 -24
-14 -11 -36 -73 -79 -108 -76 -22 2 -47 -7 -82 -30 -55 -37 -173 -95 -192 -95
-7 0 -13 -4 -13 -9 0 -5 -9 -7 -19 -4 -13 3 -21 -2 -25 -15 -4 -10 -45 -58
-92 -105 -67 -68 -93 -88 -122 -93 -39 -7 -68 -21 -144 -69 -36 -23 -49 -38
-54 -63 -4 -21 -16 -38 -33 -47 -14 -7 -53 -41 -86 -74 -33 -34 -67 -61 -77
-61 -38 0 -85 -32 -97 -66 -9 -24 -23 -39 -47 -49 -19 -8 -39 -25 -45 -38 -6
-14 -23 -31 -37 -38 -15 -9 -36 -38 -52 -75 -15 -33 -41 -76 -58 -95 -21 -24
-32 -48 -34 -74 -3 -35 -6 -40 -30 -43 -19 -2 -34 -15 -49 -39 -13 -20 -40
-52 -61 -71 -46 -42 -75 -88 -80 -127 -3 -22 -13 -35 -36 -46 -58 -30 -67 -45
-87 -139 -7 -32 -36 -103 -56 -139 -21 -38 -72 -77 -87 -67 -17 10 -52 -26
-79 -81 -15 -31 -40 -69 -55 -85 l-28 -30 22 -64 c25 -71 21 -85 -32 -89 -40
-3 -45 -9 -45 -53 0 -21 -3 -35 -6 -32 -10 9 -37 -20 -42 -45 -2 -14 -1 -25 3
-25 8 0 9 -5 15 -93 l4 -68 -33 -16 c-59 -28 -64 -96 -11 -149 8 -8 15 -19 15
-23 0 -13 -48 -148 -61 -172 -23 -42 -24 -48 -15 -162 3 -45 0 -76 -9 -93 -15
-30 -11 -97 11 -161 13 -37 13 -54 4 -94 -11 -47 -8 -170 5 -214 4 -14 -3 -33
-24 -59 -44 -55 -48 -94 -22 -203 17 -70 20 -100 13 -121 -9 -25 -8 -125 1
-227 4 -37 7 -52 23 -125 3 -14 7 -34 9 -45 2 -11 8 -33 15 -50 6 -16 13 -55
15 -86 2 -30 11 -81 20 -112 9 -32 18 -71 20 -88 2 -17 18 -47 35 -66 29 -33
31 -40 26 -85 -3 -27 -7 -52 -8 -56 -1 -4 4 -19 10 -34 6 -15 11 -43 10 -62
-2 -59 66 -215 109 -251 13 -11 32 -84 40 -150 3 -28 18 -57 48 -95 58 -76
112 -176 146 -272 25 -72 57 -117 72 -102 3 3 14 3 25 0 14 -5 24 -22 32 -56
8 -35 25 -62 57 -97 73 -77 111 -127 128 -165 8 -20 29 -47 47 -59 51 -36 126
-119 134 -149 9 -32 18 -50 25 -50 4 0 39 -27 76 -60 37 -33 81 -65 98 -71 17
-6 43 -30 59 -54 18 -25 42 -47 63 -54 18 -7 33 -17 33 -22 0 -5 9 -9 21 -9
18 0 88 -54 170 -132 16 -15 56 -37 90 -49 47 -17 67 -31 81 -55 12 -20 33
-37 54 -44 19 -6 39 -20 44 -30 10 -19 85 -66 93 -59 2 2 22 -18 44 -46 22
-27 46 -55 54 -61 15 -12 69 -29 82 -25 5 1 32 -9 60 -22 29 -13 64 -29 79
-35 16 -7 28 -16 28 -22 0 -5 16 -10 36 -10 28 0 43 -7 63 -31 19 -21 38 -31
65 -34 21 -2 64 -20 99 -41 47 -29 71 -38 102 -36 28 1 46 -5 61 -19 23 -21
142 -69 171 -69 9 0 24 6 32 14 22 20 52 22 79 8 29 -17 97 -23 125 -13 26 10
47 4 47 -12 0 -7 9 -23 19 -36 17 -22 27 -25 106 -27 48 -1 94 -6 103 -10 10
-4 24 -8 32 -9 8 -1 29 -6 45 -10 41 -10 126 -12 147 -3 9 5 19 4 22 -1 3 -4
24 -5 46 -1 22 4 40 5 40 1 0 -8 114 -6 128 3 7 4 12 3 12 -1 0 -5 12 -8 28
-6 63 6 117 15 125 20 6 3 43 7 83 9 66 2 114 19 134 45 3 4 25 17 49 30 52
27 110 29 147 6 7 -4 42 13 78 38 48 32 78 45 108 47 23 1 59 11 82 22 22 11
47 21 55 22 9 1 27 5 41 8 14 3 54 9 89 12 58 5 70 10 115 50 88 77 155 100
228 78 10 -3 28 4 40 15 21 19 184 141 208 156 5 3 19 8 30 11 11 2 30 6 41 9
12 2 46 29 76 60 49 50 163 135 181 135 4 0 19 11 34 25 15 14 31 25 35 25 5
0 19 10 33 23 14 12 41 35 60 50 74 60 159 151 175 186 9 20 21 45 27 56 6 11
21 37 32 57 11 21 22 36 24 33 3 -2 17 4 32 15 16 11 33 20 38 20 6 0 20 15
31 33 11 18 28 42 38 54 46 54 53 64 67 90 8 15 23 37 34 49 11 12 29 39 39
60 28 58 46 86 69 114 12 14 30 44 40 67 10 24 21 43 25 43 5 0 11 16 15 36 4
19 13 38 21 41 7 3 21 20 29 37 8 17 24 46 34 65 17 31 17 36 3 66 -15 31 -15
35 1 50 9 9 16 23 16 31 0 8 4 14 8 14 13 0 32 48 26 64 -3 8 10 26 32 44 28
23 37 39 40 69 1 21 14 60 28 87 15 27 26 57 26 66 0 9 11 54 25 100 14 46 27
105 29 130 2 26 16 80 31 121 28 75 38 180 24 256 -5 24 -1 40 15 61 18 25 21
41 19 113 -2 46 -4 101 -5 122 -2 20 0 37 5 37 4 0 5 5 1 12 -4 7 -9 75 -11
152 -1 78 -6 166 -10 196 -4 30 -6 96 -5 147 1 52 -3 103 -10 120 -6 15 -12
30 -13 33 -1 3 -9 23 -19 45 -37 83 -57 152 -63 215 -3 36 -13 79 -23 96 -9
17 -23 55 -31 85 -7 30 -16 56 -19 59 -3 3 -17 28 -31 55 -18 34 -34 51 -49
53 -32 5 -42 -9 -26 -39 15 -29 28 -139 17 -139 -4 0 -16 19 -27 43 -33 74
-67 90 -79 37 -8 -35 -20 -32 -30 7 -3 15 -15 40 -27 55 -28 40 -18 84 30 130
l38 36 23 -24 c21 -21 51 -27 66 -12 12 12 -14 80 -56 150 -46 76 -61 87 -85
67 -15 -12 -14 -52 3 -95 9 -25 -15 -15 -36 14 -11 16 -22 49 -25 74 -3 25 -8
53 -11 61 -4 8 0 21 8 28 31 31 40 60 24 77 -8 9 -17 30 -21 46 -4 17 -21 46
-38 65 -17 19 -39 53 -49 75 -10 23 -33 55 -51 72 -18 17 -42 43 -52 58 -31
43 -78 99 -117 136 -20 19 -43 49 -52 66 -9 18 -29 43 -45 56 -16 13 -37 36
-47 51 -9 15 -29 30 -44 34 -14 3 -40 21 -57 40 -17 18 -34 33 -38 33 -4 0
-29 22 -56 49 -28 26 -69 58 -92 71 -24 13 -74 58 -113 100 -64 70 -75 77
-127 89 -37 9 -62 21 -71 35 -8 11 -36 32 -63 45 -27 14 -69 39 -93 58 -24 18
-53 33 -65 33 -14 0 -26 11 -36 33 -15 32 -35 39 -71 23 -9 -4 -42 6 -80 24
-35 16 -72 30 -82 30 -10 0 -48 18 -84 40 -37 22 -74 40 -82 41 -62 4 -135 20
-219 49 -31 11 -76 22 -100 25 -24 3 -53 7 -65 10 -55 12 -198 31 -222 29 -11
0 -31 -5 -46 -11 -18 -8 -40 -8 -80 1 -38 9 -64 10 -87 2 -31 -9 -33 -13 -31
-47 4 -49 -2 -54 -41 -34 -18 9 -54 20 -81 24 -47 8 -50 7 -47 -13 2 -12 10
-26 18 -33 22 -17 -1 -37 -31 -27 -13 4 -28 8 -34 9 -5 0 -11 6 -11 13 -1 6
-3 15 -4 20 -1 4 -2 10 -2 13 1 4 -8 15 -18 24 -27 25 -70 21 -114 -9 -31 -20
-42 -23 -65 -15 -40 14 -99 5 -116 -17 -7 -10 -11 -22 -9 -26 6 -9 3 -9 -156
-11 l-115 -2 -25 -47 c-32 -61 -32 -61 -85 -64 -49 -4 -65 -12 -123 -66 -57
-53 -87 -69 -133 -72 -26 -2 -45 -9 -51 -20 -5 -9 -20 -28 -33 -42 -25 -26
-33 -27 -92 -9 -15 5 -23 3 -23 -5 0 -20 -40 -70 -56 -70 -19 0 -43 -24 -83
-83 -18 -26 -46 -53 -64 -61 -18 -8 -46 -28 -64 -45 -18 -17 -36 -31 -40 -31
-5 0 -19 -22 -32 -50 -13 -27 -27 -47 -32 -45 -4 3 -42 -26 -83 -65 -42 -38
-82 -70 -91 -70 -8 0 -27 -25 -42 -55 -14 -31 -46 -74 -70 -96 -37 -34 -43
-45 -43 -79 0 -33 -4 -42 -22 -49 -34 -14 -114 -93 -123 -121 -4 -14 -18 -39
-31 -56 -13 -17 -25 -44 -28 -59 -3 -15 -12 -38 -21 -52 -9 -13 -17 -38 -17
-54 -1 -17 -9 -35 -18 -42 -9 -7 -24 -24 -34 -38 -26 -42 -39 -91 -61 -249 -5
-33 -16 -53 -41 -78 -27 -27 -34 -40 -32 -70 0 -21 -4 -47 -10 -59 -7 -12 -12
-34 -12 -49 0 -18 -14 -42 -44 -74 -42 -45 -44 -49 -40 -96 3 -27 11 -73 19
-102 7 -29 11 -80 9 -115 -2 -34 -4 -69 -5 -77 0 -13 -1 -268 0 -295 0 -5 9
-35 20 -65 24 -64 25 -101 7 -152 -13 -35 -12 -37 8 -40 15 -2 20 -9 18 -23
-7 -49 -7 -91 -1 -105 3 -8 20 -42 36 -75 17 -33 33 -73 37 -90 4 -16 23 -62
42 -102 19 -40 34 -80 34 -90 0 -10 16 -35 35 -56 18 -21 39 -54 46 -75 7 -20
30 -57 51 -81 21 -25 45 -59 53 -75 8 -17 32 -53 53 -81 20 -27 43 -68 51 -90
8 -22 28 -51 44 -65 53 -43 133 -123 161 -162 15 -20 39 -41 54 -47 32 -12 76
-52 115 -103 15 -21 31 -37 35 -36 4 1 35 -11 70 -26 53 -25 66 -36 82 -71 25
-55 37 -63 90 -61 40 2 49 -2 83 -35 20 -20 37 -35 37 -34 0 11 84 -23 132
-52 66 -41 100 -48 139 -28 24 13 29 13 40 -1 7 -9 31 -28 53 -43 41 -28 72
-35 91 -21 14 10 43 6 90 -15 28 -12 75 -18 163 -21 73 -2 134 -9 150 -17 29
-14 41 -15 57 -5 17 11 88 22 125 19 71 -4 176 -3 205 2 17 3 46 8 65 10 19 2
52 12 73 20 20 9 39 17 42 17 3 0 20 7 40 16 19 8 35 11 35 8 0 -4 6 -2 13 3
6 6 25 13 40 17 15 4 57 20 93 36 52 24 69 28 85 19 16 -8 25 -7 37 4 9 8 40
22 69 31 28 10 57 24 64 32 6 8 38 28 70 45 32 17 61 39 64 48 6 20 60 55 98
65 29 7 35 32 17 65 -12 24 11 45 65 60 31 8 45 20 65 53 13 24 23 47 22 51
-1 4 6 11 15 14 38 15 99 113 71 113 -6 0 -8 3 -5 7 4 3 -3 11 -16 17 -13 7
-22 21 -22 35 0 34 22 38 36 7 22 -47 63 -31 150 58 15 16 26 32 24 36 -6 10
19 77 37 97 9 10 22 32 31 48 15 31 48 136 45 145 -1 3 4 16 11 28 20 38 23
71 6 95 -20 29 -20 29 20 77 28 34 35 50 35 86 0 58 -28 89 -65 72 -14 -6 -30
-26 -37 -45 -7 -18 -15 -32 -18 -30 -3 2 -20 9 -37 16 -18 7 -33 16 -33 20 0
4 20 37 44 74 33 51 44 75 41 97 -4 29 5 36 37 31 13 -2 26 33 23 64 -4 54
-17 115 -25 120 -9 6 -50 -33 -50 -47 0 -20 -40 -5 -80 31 l-44 39 13 42 c13
44 6 59 -27 60 -19 0 -37 21 -49 55 -8 24 -6 37 10 65 29 51 43 71 49 65 9 -9
40 47 41 71 0 13 8 31 19 41 19 17 20 16 51 -20 18 -21 50 -48 71 -60 31 -17
40 -29 41 -50 2 -24 21 -73 35 -87 8 -7 28 -52 34 -75 4 -14 15 -21 37 -22 38
-3 79 -28 79 -48 0 -8 -12 -22 -27 -32 -36 -23 -42 -32 -37 -57 2 -12 6 -33 9
-49 3 -15 13 -49 22 -75 9 -26 18 -79 18 -119 1 -43 11 -100 24 -141 l23 -70
-32 -68 c-18 -38 -34 -77 -36 -87 -2 -10 -6 -27 -9 -38 -8 -25 -9 -91 -1 -116
4 -13 -4 -35 -24 -66 -28 -41 -34 -57 -45 -117 -1 -8 1 -24 6 -36 6 -18 1 -23
-31 -38 -32 -14 -39 -23 -49 -61 -6 -24 -11 -53 -11 -64 0 -11 -12 -27 -27
-36 -46 -28 -82 -96 -78 -149 4 -47 -15 -77 -45 -70 -67 16 -63 18 -134 -51
-76 -73 -126 -108 -169 -119 -15 -3 -44 -24 -63 -46 -20 -22 -65 -54 -99 -71
-35 -17 -72 -42 -82 -55 -10 -13 -21 -24 -25 -24 -4 0 -30 -14 -58 -31 -44
-27 -64 -35 -92 -38 -5 -1 -8 -7 -8 -14 0 -24 -24 -46 -56 -51 -17 -3 -48 -13
-68 -21 -20 -9 -62 -17 -94 -19 -31 -2 -69 -9 -83 -14 -15 -6 -44 -13 -66 -17
-21 -3 -50 -8 -63 -10 -14 -3 -38 -8 -54 -10 -16 -3 -36 -10 -45 -15 -10 -5
-24 -4 -34 1 -10 6 -26 7 -37 4 -49 -15 -82 -19 -185 -18 -179 0 -249 5 -271
19 -52 31 -105 42 -148 29 -37 -11 -48 -10 -101 10 -33 13 -98 35 -145 50 -47
15 -98 37 -114 48 -16 11 -44 21 -63 23 -18 1 -45 9 -58 18 -14 9 -25 13 -25
10 0 -4 -8 0 -17 8 -20 16 -54 32 -65 30 -4 -1 -38 18 -75 42 -38 24 -91 55
-119 69 -28 14 -61 40 -73 59 -13 18 -69 66 -125 105 -55 40 -122 92 -148 115
-25 24 -69 63 -97 88 -28 24 -51 50 -51 57 0 7 -4 13 -8 13 -5 0 -17 17 -28
38 -10 20 -25 41 -33 46 -35 22 -92 92 -102 126 -10 33 -30 60 -113 150 -28
30 -86 125 -97 159 -7 19 -31 60 -55 90 -66 86 -155 317 -159 412 0 25 -10 65
-22 90 -37 79 -55 143 -58 201 -2 31 -5 60 -8 65 -7 11 -29 132 -28 151 2 27
2 60 -2 112 -3 33 1 67 10 88 15 36 13 84 -4 118 -13 23 -14 117 -2 159 5 16
11 60 14 97 3 42 12 80 26 104 13 24 22 60 24 99 2 33 11 78 20 99 16 38 19
49 30 99 2 12 23 38 46 58 31 28 42 45 43 68 1 22 6 31 19 31 9 0 20 0 25 1
12 1 24 28 16 40 -21 34 -15 81 16 129 17 27 33 62 34 79 1 18 15 43 36 64 57
58 67 72 63 96 -2 16 10 37 41 69 25 26 53 58 64 72 24 31 62 106 57 112 -9 9
396 399 428 413 41 17 47 29 36 68 -17 60 8 83 91 85 62 2 79 11 120 67 30 41
54 61 98 81 31 15 66 35 77 44 11 9 34 22 51 28 18 6 55 26 84 46 29 20 55 34
60 31 4 -2 20 12 36 32 33 41 90 70 149 75 24 2 49 12 64 26 33 30 102 62 149
68 20 2 44 6 52 9 8 2 49 5 90 7 56 1 86 8 119 25 24 13 50 23 58 23 8 0 27 7
43 15 28 14 46 17 205 30 44 4 96 10 115 14 20 4 42 7 50 5 8 -2 43 -8 77 -14
35 -6 74 -15 88 -20 14 -5 25 -7 25 -4 0 2 8 0 18 -5 14 -7 25 -6 41 5 17 13
38 14 104 9 45 -4 85 -9 88 -10 3 -2 28 -7 55 -10 27 -4 65 -10 84 -15 19 -5
46 -11 60 -14 14 -3 52 -12 85 -21 33 -9 85 -17 115 -17 42 -1 60 -7 82 -26
15 -14 30 -34 34 -44 4 -12 14 -18 27 -17 12 1 40 -1 61 -6 22 -4 47 -8 55 -9
9 -1 34 -12 55 -25 22 -14 53 -26 69 -28 17 -2 51 -16 76 -31 82 -49 99 -55
135 -48 42 8 40 36 -5 54 -39 14 -37 49 1 44 35 -4 68 -47 64 -83 -4 -30 10
-47 71 -94 39 -29 95 -41 95 -19 0 8 -5 25 -11 36 -7 13 -7 24 -1 30 13 13 47
-7 85 -50 17 -18 44 -40 61 -49 35 -18 46 -31 46 -55 0 -9 12 -37 28 -62 29
-49 54 -62 137 -72 61 -6 132 -39 140 -63 3 -10 1 -31 -5 -46 -15 -39 6 -59
65 -59 58 -1 69 -17 51 -71 -16 -44 -11 -65 13 -65 9 0 22 -5 29 -12 7 -7 12
-9 12 -4 0 10 100 -45 101 -56 1 -4 3 -12 4 -18 1 -5 3 -19 4 -30 1 -21 86
-123 106 -128 7 -2 20 5 29 14 26 25 28 12 5 -33 -29 -59 -23 -102 20 -130 19
-13 42 -36 51 -51 10 -15 38 -48 63 -74 56 -57 67 -77 67 -118 0 -25 12 -44
56 -88 82 -83 111 -165 90 -251 -4 -20 3 -32 34 -61 26 -24 40 -46 40 -61 0
-14 4 -29 8 -34 22 -25 54 -124 54 -162 -1 -32 6 -54 27 -86 31 -44 40 -75 29
-93 -4 -6 4 -27 17 -47 14 -20 25 -41 25 -46 0 -6 3 -11 8 -11 4 0 18 -23 31
-51 19 -42 22 -61 17 -103 -3 -28 -7 -58 -8 -66 -1 -8 7 -33 17 -55 13 -30 18
-70 20 -157 2 -65 -1 -118 -6 -118 -18 0 -27 -69 -15 -112 7 -24 12 -59 10
-78 -2 -19 3 -52 11 -73 9 -21 13 -43 10 -48 -4 -5 -1 -9 6 -9 7 0 10 -3 6 -6
-3 -4 0 -22 8 -42 14 -32 14 -36 -3 -51 -13 -11 -21 -37 -26 -81 -4 -36 -9
-78 -12 -95 -3 -16 -6 -54 -8 -83 -4 -47 -1 -55 25 -79 37 -35 32 -61 -20
-116 -23 -23 -41 -47 -41 -53 0 -6 -7 -17 -16 -25 -8 -7 -13 -20 -11 -29 4
-15 0 -47 -18 -138 -5 -25 -3 -32 9 -32 8 0 20 -9 25 -19 11 -20 0 -35 -42
-56 -54 -27 -53 -95 2 -106 40 -8 40 -9 31 -35 -7 -18 -16 -21 -52 -20 l-43 3
-27 -58 c-16 -32 -30 -75 -34 -96 -3 -21 -7 -48 -9 -61 -2 -13 -22 -42 -44
-64 -23 -22 -41 -50 -42 -62 -1 -11 -2 -37 -3 -56 -1 -20 -14 -53 -29 -75 -15
-22 -27 -43 -27 -48 0 -18 -42 -98 -63 -121 -13 -14 -36 -58 -52 -98 -15 -40
-34 -79 -41 -87 -11 -12 -10 -19 2 -43 13 -25 13 -31 0 -49 -13 -19 -99 -89
-133 -108 -8 -4 -16 -21 -17 -37 -2 -16 -9 -55 -17 -88 -12 -52 -22 -66 -86
-129 -40 -38 -79 -85 -88 -104 -9 -19 -28 -39 -43 -46 -14 -7 -35 -20 -47 -31
-12 -10 -39 -29 -61 -41 -33 -18 -39 -27 -42 -59 -3 -34 -8 -39 -48 -56 -24
-11 -44 -24 -44 -29 0 -13 -149 -161 -163 -161 -27 0 -170 -80 -240 -134 -120
-94 -139 -106 -157 -106 -9 0 -22 -10 -29 -23 -17 -32 -28 -37 -221 -113 -186
-72 -237 -87 -246 -73 -10 17 -45 9 -71 -15 -40 -37 -207 -115 -258 -121 -48
-5 -115 -22 -191 -49 -84 -30 -112 -36 -183 -41 -29 -3 -58 -8 -65 -13 -6 -4
-28 -13 -48 -20 -29 -10 -41 -10 -56 -1 -16 10 -28 9 -63 -8 -24 -11 -73 -23
-109 -26 -68 -5 -97 -10 -165 -29 -22 -6 -62 -12 -90 -13 -73 -3 -75 -4 -75
-20 0 -23 -47 -29 -91 -12 -43 17 -61 9 -74 -34 -7 -21 25 -58 52 -60 7 -1 39
-2 71 -4 31 -1 68 -5 82 -9 14 -4 61 -9 105 -12 43 -3 92 -12 108 -20 16 -9
40 -13 55 -9 15 3 50 7 77 10 28 2 68 7 90 11 48 8 69 7 112 -1 24 -6 40 -1
69 19 21 14 44 26 51 26 23 0 24 -20 4 -46 -26 -33 -20 -43 21 -38 18 2 83 6
143 9 157 7 166 9 205 30 42 23 46 23 135 30 118 8 145 15 187 46 23 16 54 29
69 29 25 0 95 26 109 40 7 7 29 11 75 15 22 2 60 10 84 19 24 9 52 14 62 11
29 -9 86 -13 96 -6 5 3 24 27 41 53 37 54 60 65 99 45 50 -26 69 -24 120 15
26 20 57 38 68 40 11 1 25 8 32 14 7 7 29 15 50 19 21 3 47 15 58 24 11 10 41
30 67 45 26 14 51 32 55 39 4 6 35 30 68 52 88 58 111 86 88 109 -4 3 -8 14
-9 22 -1 9 0 13 3 10 3 -2 23 6 45 20 22 14 42 23 45 20 3 -3 36 21 72 53 78
69 140 113 151 106 4 -3 22 11 40 31 24 28 36 35 55 30 17 -4 28 -1 37 13 7
10 17 18 21 19 14 0 113 95 126 120 13 24 7 42 -14 42 -16 0 -27 27 -14 36 6
3 32 3 59 0 42 -5 51 -3 67 17 10 12 40 37 67 55 48 31 96 97 96 131 0 15 74
81 91 81 3 0 18 26 32 58 14 31 38 71 54 88 15 18 35 42 43 54 8 13 30 40 48
62 17 22 32 44 32 48 0 5 13 23 29 40 16 18 31 44 35 59 3 14 20 42 39 63 19
20 37 48 41 63 4 15 18 43 31 63 13 21 26 46 28 58 3 19 11 33 50 75 9 10 17
28 17 39 0 11 5 20 11 20 5 0 8 4 5 9 -3 5 2 19 12 32 42 55 73 123 67 149 -4
20 2 33 34 64 25 25 42 51 46 75 4 20 10 41 15 46 9 12 22 60 25 95 7 70 18
117 36 141 10 15 19 41 19 58 0 21 9 39 31 59 29 27 30 31 20 68 -20 71 -9
167 20 185 6 3 12 27 15 53 7 59 27 118 53 155 11 15 24 47 29 69 9 36 7 45
-12 65 -18 19 -25 39 -16 50 7 9 7 43 0 63 -5 13 -6 24 -1 24 9 0 37 89 33
103 -1 4 2 7 7 7 16 0 21 44 7 65 -7 11 -11 31 -8 45 6 27 7 302 1 360 -1 19
-7 41 -12 47 -5 7 -6 29 -1 50 11 56 11 83 -2 133 -8 34 -8 52 1 75 14 34 13
44 -16 155 -11 44 -18 89 -14 99 14 45 12 62 -10 95 -17 25 -24 51 -26 93 -1
32 -6 65 -10 74 -4 9 -4 20 1 25 6 6 -6 32 -30 68 -32 47 -40 68 -41 107 -1
27 -3 54 -4 59 -1 6 -3 17 -4 25 0 8 -13 26 -28 40 -24 22 -26 28 -15 45 18
29 15 60 -11 105 -12 22 -22 52 -22 68 1 23 -8 33 -50 59 -27 18 -52 33 -54
35 -2 2 -5 11 -6 21 -2 14 -11 62 -21 105 -1 4 -2 12 -3 17 0 6 -12 15 -25 21
-25 12 -51 55 -36 61 14 5 18 60 7 93 -6 17 -20 43 -31 58 l-21 28 22 17 c28
22 23 62 -14 113 -45 63 -52 82 -47 116 4 28 1 33 -28 48 -65 31 -82 50 -82
93 -1 37 -4 41 -36 51 -60 18 -100 66 -104 126 0 10 -17 29 -36 42 -51 32 -90
73 -90 94 0 10 -4 21 -10 24 -5 3 -10 14 -10 24 0 10 -42 60 -92 112 -51 52
-114 117 -139 144 -25 28 -60 61 -77 75 -18 14 -32 30 -32 36 0 29 -27 63 -55
68 -23 5 -39 20 -69 67 -41 64 -96 109 -132 109 -24 0 -124 75 -124 93 0 7
-19 21 -41 32 -22 10 -61 38 -85 62 -25 23 -47 42 -50 42 -19 -3 -62 27 -81
55 -14 22 -32 35 -53 40 -18 3 -45 20 -60 37 -25 26 -41 33 -96 43 -6 1 -26
15 -45 30 -28 25 -188 106 -252 129 -10 4 -42 22 -70 41 -33 22 -61 33 -78 31
-30 -3 -40 2 -55 30 -6 11 -22 22 -34 23 -13 2 -34 11 -46 19 -13 8 -49 17
-80 19 -32 2 -75 13 -97 24 -30 16 -50 20 -77 15 -24 -4 -41 -2 -45 5 -13 21
-61 35 -155 45 -112 11 -147 21 -178 51 -9 10 -19 11 -40 3 -24 -9 -73 -7
-135 7 -12 3 -40 7 -62 10 -100 10 -132 14 -157 19 -16 3 -39 7 -53 9 -13 3
-30 8 -36 12 -17 10 -139 5 -161 -7 -10 -5 -18 -19 -18 -30 0 -21 9 -21 90 -4
8 1 25 -4 37 -11 13 -8 44 -17 70 -20 27 -3 57 -8 68 -9 11 -2 24 -4 28 -4 5
-1 1 -8 -7 -17 -16 -15 -85 -22 -104 -10 -19 12 -102 24 -107 15 -6 -9 -57 -2
-65 9 -10 14 -62 32 -93 32 l-32 0 30 24 30 24 -28 11 c-37 14 -32 16 -67 -22z
m-700 -62 c0 -20 -23 -35 -53 -35 -21 0 -28 4 -25 17 4 24 78 42 78 18z m1383
-60 c73 -5 106 -20 107 -49 0 -7 -65 -4 -100 6 -45 13 -67 23 -90 41 l-25 20
35 -8 c19 -4 52 -9 73 -10z m-225 -201 c25 -7 13 -32 -16 -30 -34 2 -52 13
-52 32 0 14 20 13 68 -2z m453 -70 c71 -21 76 -27 43 -53 -33 -26 -58 -20
-101 25 -27 27 -29 34 -15 37 9 3 17 5 18 6 0 0 25 -6 55 -15z m244 -60 c11
-4 44 -24 74 -43 43 -28 65 -36 105 -37 28 -1 58 -2 67 -3 18 -1 59 -37 59
-51 0 -16 -19 -11 -36 9 -12 14 -23 17 -43 12 -14 -4 -44 -4 -66 0 -66 13
-112 11 -119 -6 -8 -21 29 -55 59 -55 14 0 53 -17 86 -38 46 -30 57 -41 47
-49 -18 -14 -67 -22 -74 -12 -3 5 -13 9 -22 9 -9 0 -35 14 -56 30 -28 21 -51
30 -78 30 -39 0 -118 33 -118 49 0 15 24 28 64 34 22 4 43 10 48 15 16 16 -19
43 -72 55 -36 8 -56 18 -58 29 -6 31 76 45 133 22z m-470 -50 c-22 -16 -41 -4
-31 21 5 13 10 14 28 4 21 -11 21 -12 3 -25z m151 -18 c21 -4 43 -11 47 -15
13 -13 -1 -30 -21 -26 -58 12 -104 24 -109 28 -10 11 8 26 26 22 10 -2 36 -6
57 -9z m168 -51 c2 -7 -1 -15 -7 -18 -16 -6 -57 10 -57 22 0 23 55 19 64 -4z
m672 -96 c11 -8 20 -22 22 -31 2 -15 -1 -16 -30 -6 -35 11 -68 36 -68 49 0 13
55 4 76 -12z m-1005 -944 c15 -8 41 -27 56 -41 26 -24 28 -31 29 -112 0 -48
-3 -91 -7 -97 -4 -5 -7 -12 -7 -15 2 -12 -44 -139 -57 -156 -8 -10 -15 -33
-15 -50 0 -35 -47 -103 -70 -104 -9 0 -24 6 -35 14 -21 14 -74 27 -111 27 -38
-1 -93 140 -89 229 2 41 70 199 94 218 9 7 29 23 45 35 16 12 34 27 40 32 34
32 88 40 127 20z m-881 -197 c11 -12 21 -25 21 -30 1 -4 2 -11 4 -15 2 -10 13
-69 19 -103 3 -14 8 -39 11 -57 5 -20 1 -50 -11 -85 -10 -29 -19 -57 -20 -63
-9 -43 -28 -67 -74 -90 l-51 -26 37 -34 c19 -19 33 -39 29 -44 -3 -6 -8 -46
-10 -88 -3 -68 -8 -104 -15 -123 -1 -3 -2 -8 -2 -11 1 -3 -14 -32 -32 -65
l-33 -59 -97 0 c-114 0 -140 7 -131 34 3 11 8 28 10 38 2 10 9 32 15 48 7 17
14 53 16 82 1 28 7 61 13 72 7 11 9 32 5 46 -5 21 -1 30 17 43 32 24 118 72
126 71 4 0 9 4 10 8 4 10 -13 19 -91 52 l-49 21 5 69 c4 54 14 85 47 152 76
150 174 217 231 157z m1528 -188 c42 -26 62 -74 63 -148 1 -82 -10 -133 -38
-166 -30 -36 -55 -86 -77 -152 -10 -29 -31 -65 -51 -84 -30 -29 -35 -41 -35
-79 0 -36 -10 -62 -57 -140 -32 -53 -56 -96 -54 -96 2 0 -6 -20 -18 -44 -25
-48 -88 -121 -105 -121 -26 0 -52 71 -36 100 6 11 5 30 -2 54 -11 35 -9 55 18
184 2 13 12 41 21 63 l16 40 74 -3 c64 -3 77 0 87 15 9 15 7 20 -9 30 -20 11
-39 17 -63 19 -7 1 -26 16 -42 35 -25 28 -29 39 -24 71 20 135 54 248 107 360
6 13 29 33 52 44 82 43 125 47 173 18z m-823 -255 c49 -12 106 -47 97 -59 -25
-33 -51 -132 -57 -216 -5 -63 -17 -90 -62 -130 -39 -37 -47 -39 -98 -27 -64
15 -75 15 -90 0 -23 -23 -13 -38 28 -41 46 -4 52 -32 7 -32 -16 0 -30 -4 -30
-9 0 -5 14 -19 30 -31 17 -12 30 -19 30 -15 0 6 57 -21 76 -37 9 -6 4 -35 -18
-106 -17 -53 -33 -101 -37 -107 -4 -5 -16 -32 -26 -60 -27 -76 -28 -76 -123
-74 -119 3 -152 14 -154 53 -5 92 -3 153 4 174 4 12 9 36 10 52 1 17 5 30 8
30 3 0 12 20 19 45 7 25 16 45 20 45 3 0 24 16 46 35 22 19 45 39 52 44 8 8 8
20 -3 50 -7 22 -11 48 -8 58 13 40 37 89 51 105 9 10 17 40 20 68 7 87 48 188
78 193 30 4 96 1 130 -8z m-1515 -40 c-14 -17 -40 -20 -40 -6 0 6 10 17 22 26
26 17 37 3 18 -20z m606 -436 c2 -4 13 -5 23 -2 14 4 24 -3 34 -24 8 -15 27
-41 41 -58 31 -36 34 -87 10 -159 -15 -43 -15 -48 0 -65 18 -19 21 -47 7 -56
-5 -3 -12 -19 -16 -35 -4 -17 -12 -30 -18 -30 -7 0 -27 -14 -44 -31 -18 -16
-33 -28 -33 -25 0 3 -12 -6 -26 -19 -36 -34 -121 -64 -153 -55 -21 5 -26 13
-26 38 0 18 -3 32 -7 32 -4 0 -6 8 -6 18 1 9 -7 45 -16 79 -9 34 -14 76 -12
95 3 18 8 56 11 83 3 28 11 64 17 80 11 28 46 62 59 58 32 -10 101 -12 118 -3
31 16 25 28 -16 36 -53 9 -68 23 -46 40 18 14 91 16 99 3z m-1226 -108 c0 -14
-32 -29 -47 -24 -24 9 -13 29 17 31 17 1 30 -2 30 -7z m3437 3 c33 -9 55 -50
58 -108 1 -29 6 -62 10 -75 8 -27 -7 -66 -52 -138 -18 -29 -33 -56 -33 -60 0
-4 -17 -18 -38 -31 -20 -13 -44 -35 -53 -51 -9 -15 -31 -35 -50 -44 -29 -13
-37 -24 -48 -67 -7 -27 -17 -50 -22 -50 -5 0 -9 -5 -9 -10 0 -6 -30 -50 -66
-98 -37 -47 -68 -92 -71 -99 -3 -7 -18 -13 -33 -13 -52 0 -113 -34 -115 -65
-3 -47 -19 -74 -53 -88 -20 -9 -46 -17 -57 -19 -14 -2 -24 -17 -34 -48 -14
-46 -26 -60 -50 -60 -11 0 -12 19 -8 93 9 163 21 195 95 248 40 28 66 57 89
99 18 33 49 88 68 123 19 34 35 70 35 80 0 11 16 25 45 37 41 17 45 23 45 53
0 55 26 125 68 186 22 31 47 72 57 91 27 52 74 89 145 113 21 8 51 8 77 1z
m-3809 -53 c11 -6 10 -11 -4 -25 -13 -13 -19 -14 -25 -5 -8 13 -1 39 10 39 3
0 12 -4 19 -9z m-85 -127 c20 -7 10 -41 -13 -47 -21 -5 -34 25 -17 42 13 13
11 13 30 5z m-213 -49 c0 -8 -9 -15 -20 -15 -13 0 -18 5 -14 15 4 8 12 15 20
15 8 0 14 -7 14 -15z m487 -101 c-19 -36 -33 -13 -15 26 10 23 14 26 21 15 4
-9 2 -26 -6 -41z m2709 4 c39 -26 41 -37 15 -94 -23 -50 -35 -60 -80 -63 -11
0 -22 -11 -26 -23 -15 -56 -39 -97 -58 -102 -26 -6 -29 -4 -32 29 -2 17 6 32
27 50 33 28 41 70 17 89 -42 34 -51 54 -40 88 19 58 110 72 177 26z m-3279
-137 c1 -11 -5 -25 -13 -32 -11 -9 -14 -7 -14 13 0 38 24 55 27 19z m-34 -99
c-16 -51 -43 -66 -43 -25 0 29 27 73 45 73 10 0 10 -10 -2 -48z m1971 3 c41 2
53 -2 70 -22 17 -19 33 -24 84 -28 55 -4 66 -8 98 -39 31 -30 43 -35 81 -34
53 1 62 -6 40 -30 -23 -25 -21 -47 4 -71 19 -17 53 -21 67 -6 3 3 6 24 7 47 2
24 3 48 4 53 3 25 201 -1 201 -27 0 -4 5 -8 11 -8 6 0 35 -17 64 -37 40 -28
55 -46 60 -69 7 -40 25 -55 61 -52 16 2 54 -1 84 -6 53 -7 57 -10 80 -53 22
-42 102 -123 121 -123 5 0 9 -13 9 -28 0 -16 9 -39 20 -52 11 -13 20 -34 20
-48 0 -21 3 -23 23 -17 39 13 81 13 107 0 14 -7 53 -41 86 -74 70 -70 72 -85
18 -126 -37 -28 -43 -51 -19 -69 14 -10 14 -15 -1 -51 -16 -39 -23 -67 -29
-113 -3 -28 -6 -32 -34 -37 -36 -7 -39 -13 -29 -62 13 -66 13 -66 -5 -105 -9
-19 -19 -49 -22 -67 -3 -19 -10 -42 -15 -52 -6 -10 -10 -25 -10 -33 0 -9 -10
-37 -23 -64 -17 -35 -20 -53 -14 -72 7 -19 4 -37 -12 -70 -11 -25 -20 -58 -19
-75 0 -16 -9 -52 -22 -80 -13 -27 -38 -88 -56 -133 -22 -56 -45 -96 -69 -119
-20 -19 -40 -46 -45 -59 -5 -13 -62 -62 -126 -110 l-117 -86 -84 -2 c-47 -2
-88 -8 -91 -13 -5 -8 -33 -6 -92 7 -171 37 -195 53 -243 155 -24 49 -29 54
-46 45 -39 -20 -43 -13 -36 57 4 37 9 71 11 75 3 4 -2 5 -10 2 -16 -6 -20 -16
-31 -70 -5 -27 -15 -35 -61 -55 -29 -13 -54 -27 -54 -31 0 -12 -38 -9 -46 3
-8 14 -68 3 -114 -20 -29 -15 -58 -18 -156 -17 l-122 1 -93 65 c-52 35 -100
70 -107 77 -8 7 -23 18 -34 24 -19 10 -47 33 -92 74 -12 11 -29 36 -39 57 -9
20 -45 69 -80 110 -34 40 -70 82 -79 93 -9 11 -42 50 -73 87 -49 58 -56 72
-58 115 -2 30 -11 59 -24 78 -27 37 -65 149 -57 168 3 8 1 18 -5 22 -6 3 -11
13 -11 21 0 25 -93 205 -148 286 -28 41 -82 108 -122 149 -39 41 -80 88 -91
104 -12 17 -45 48 -74 70 -46 35 -57 50 -83 117 l-29 78 30 -6 c17 -2 33 -7
36 -9 4 -2 15 3 25 11 18 13 18 18 8 66 -16 65 -27 78 -68 78 -55 0 -74 36
-40 79 11 14 46 30 81 37 11 2 31 7 45 10 53 13 74 5 126 -44 7 -7 17 -19 21
-26 5 -7 30 -28 57 -47 51 -35 75 -63 64 -74 -3 -4 -19 0 -35 9 -25 12 -51 10
-56 -5 -1 -2 8 -19 18 -36 12 -21 34 -39 61 -49 35 -13 42 -20 38 -38 -19 -94
-19 -92 25 -112 41 -19 41 -19 39 -72 -1 -41 3 -56 18 -66 16 -12 16 -16 5
-30 -11 -14 -12 -24 -2 -54 12 -36 10 -100 -3 -134 -5 -10 2 -27 21 -47 26
-30 30 -31 61 -20 17 6 33 18 33 27 1 10 2 22 4 27 1 6 3 15 3 22 3 21 41 36
58 22 16 -13 19 -55 5 -61 -13 -4 7 -28 59 -69 37 -29 53 -35 92 -34 25 1 54
7 63 15 15 13 17 10 14 -30 -3 -34 0 -46 11 -48 8 -1 58 40 110 91 52 51 103
98 113 104 24 13 60 6 84 -16 25 -24 60 -32 72 -17 8 9 3 22 -14 46 -25 34
-32 60 -17 60 12 0 33 50 27 61 -4 5 -2 9 4 9 6 0 18 14 26 31 14 26 61 75
118 125 21 18 117 30 177 22 30 -4 40 -13 70 -64 19 -33 45 -72 57 -87 12 -16
21 -41 21 -61 0 -18 7 -44 15 -57 9 -13 18 -49 22 -79 4 -30 9 -58 10 -61 2
-3 23 -11 47 -18 24 -7 53 -18 65 -23 36 -17 45 -1 20 37 -12 19 -27 35 -33
35 -16 0 -26 28 -14 35 13 8 13 45 1 45 -5 0 -20 -13 -34 -30 -23 -26 -26 -28
-39 -13 -7 9 -14 49 -17 95 -3 71 -1 78 15 78 11 0 29 -8 40 -18 27 -21 77
-100 81 -127 6 -38 12 -45 38 -43 19 2 28 11 36 37 7 19 21 44 31 55 41 43 53
67 38 76 -20 12 -44 -4 -68 -45 -25 -40 -52 -38 -52 4 0 31 -16 51 -41 51 -11
0 -22 13 -30 38 -6 20 -15 39 -18 42 -3 3 -21 22 -38 42 -33 39 -35 67 -5 64
24 -2 29 56 6 74 -14 12 -18 12 -30 -4 -7 -10 -11 -30 -8 -46 7 -33 -9 -35
-80 -13 -38 12 -66 33 -135 103 -47 48 -93 89 -101 92 -10 3 -15 22 -16 67 -3
86 24 162 97 274 23 34 23 34 63 22 23 -7 63 -11 90 -10z m3202 -170 c-3 -8 0
-16 7 -19 7 -2 5 -5 -5 -5 -9 -1 -20 4 -23 9 -10 16 3 42 16 35 6 -4 8 -13 5
-20z m-5326 -3320 c15 -18 11 -24 -19 -30 -30 -6 -48 3 -54 26 -11 40 41 43
73 4z m2610 -941 c0 -8 -7 -17 -15 -20 -21 -8 -65 4 -65 17 0 6 9 9 20 6 11
-3 20 -2 20 2 0 4 9 7 20 8 12 1 20 -4 20 -13z"/>
<path d="M4092 4735 c1 -11 -2 -29 -6 -41 -7 -23 7 -40 39 -45 10 -2 22 -15
25 -28 3 -14 11 -26 17 -28 9 -3 9 4 2 29 -6 18 -13 42 -17 53 -3 11 -18 33
-33 50 -24 25 -28 26 -27 10z"/>
<path d="M4293 4723 c-17 -6 -16 -30 1 -36 13 -5 36 10 36 24 0 10 -23 17 -37
12z"/>
<path d="M4642 4707 c-26 -12 -40 -53 -23 -70 14 -14 57 8 64 34 8 30 -14 49
-41 36z"/>
<path d="M4057 4563 c-10 -10 73 -62 89 -56 8 3 14 1 14 -5 0 -5 9 -12 21 -15
13 -3 19 -1 16 6 -2 7 -10 12 -18 12 -8 0 -14 5 -14 10 -3 41 -17 55 -59 55
-23 0 -46 -3 -49 -7z"/>
<path d="M4649 4553 c0 -5 -2 -18 -5 -30 -3 -19 1 -23 21 -23 17 0 25 5 25 18
0 26 -38 59 -41 35z"/>
<path d="M4492 4515 c-13 -10 -28 -38 -38 -73 -24 -85 -35 -108 -63 -126 -17
-10 -21 -16 -11 -17 76 -6 100 -5 133 7 20 7 37 11 37 8 0 -3 14 4 30 16 17
12 30 27 30 35 0 15 -27 28 -35 16 -9 -15 -56 -19 -61 -6 -3 7 0 32 6 55 26
97 20 118 -28 85z"/>
<path d="M4202 4458 c-16 -16 -15 -50 3 -84 8 -16 15 -39 15 -51 0 -13 5 -23
10 -23 6 0 10 7 10 15 0 24 24 28 65 11 21 -9 43 -16 49 -16 14 0 -41 48 -63
55 -9 3 -22 20 -29 39 -16 45 -44 70 -60 54z"/>
<path d="M4030 4410 c-8 -16 -8 -20 4 -20 9 0 20 9 26 20 8 16 8 20 -4 20 -9
0 -20 -9 -26 -20z"/>
<path d="M4367 4228 c6 -39 18 -63 49 -100 18 -23 22 -38 20 -82 l-3 -55 38
-15 c59 -24 87 -21 87 8 0 14 3 53 6 88 l7 63 -58 0 c-58 0 -58 0 -58 30 0 24
-7 33 -32 44 -17 8 -34 22 -36 32 -9 33 -26 21 -20 -13z"/>
<path d="M4505 4237 c-8 -32 10 -68 30 -61 16 7 17 9 19 52 1 21 -4 28 -21 30
-17 2 -24 -3 -28 -21z"/>
<path d="M4256 4183 c-12 -12 -5 -33 14 -43 17 -9 20 -8 20 14 0 23 -21 41
-34 29z"/>
<path d="M4142 4104 c-2 -43 -14 -54 -59 -54 -39 0 -41 -10 -10 -45 14 -17 35
-28 55 -30 30 -2 32 0 47 52 21 70 17 107 -11 111 -18 3 -21 -3 -22 -34z"/>
<path d="M4735 4104 c-37 -19 -74 -63 -75 -87 0 -15 6 -17 43 -12 77 12 102
12 120 3 28 -14 20 13 -13 46 -17 16 -30 38 -30 48 0 22 -6 22 -45 2z"/>
<path d="M4205 4020 c-3 -5 1 -10 9 -10 8 0 18 5 21 10 3 6 -1 10 -9 10 -8 0
-18 -4 -21 -10z"/>
<path d="M3756 4001 c-4 -5 -2 -12 3 -15 5 -4 12 -2 15 3 4 5 2 12 -3 15 -5 4
-12 2 -15 -3z"/>
<path d="M4926 3991 c-3 -4 0 -15 7 -24 15 -20 77 -35 77 -18 0 6 -15 20 -32
31 -37 22 -44 24 -52 11z"/>
<path d="M3989 3851 c-10 -81 -55 -97 -86 -31 -10 21 -11 12 -6 -50 3 -43 14
-90 24 -110 11 -19 19 -40 19 -47 0 -6 4 -14 9 -17 13 -8 71 14 73 27 4 35 3
45 -9 82 -10 30 -11 46 -3 66 14 33 10 81 -7 87 -7 2 -14 -1 -14 -7z"/>
<path d="M4925 3770 c3 -5 13 -10 21 -10 8 0 14 5 14 10 0 6 -9 10 -21 10 -11
0 -17 -4 -14 -10z"/>
<path d="M4196 3763 c-3 -4 -6 -14 -6 -24 0 -21 25 -16 34 6 5 14 -17 28 -28
18z"/>
<path d="M4045 3600 c-3 -6 -4 -10 -1 -10 3 0 2 -11 -3 -23 -5 -13 -6 -29 -2
-35 10 -16 51 13 51 36 0 21 -36 46 -45 32z"/>
<path d="M3839 3123 c-13 -8 -32 -28 -41 -43 -14 -24 -14 -29 -2 -34 8 -3 14
-1 14 4 0 6 6 10 13 10 14 0 55 65 46 74 -2 2 -16 -2 -30 -11z"/>
<path d="M6757 5179 c-6 -22 13 -35 39 -25 17 7 11 21 -15 36 -15 8 -20 5 -24
-11z"/>
</g>
</svg>
